<svg width="100" height="100" viewBox="0 0 100 100" fill="none" xmlns="http://www.w3.org/2000/svg">
<path d="M49.4707 12.0004C49.3563 12.0039 49.2433 12.027 49.1367 12.0688L27.6367 20.434C27.4491 20.5071 27.288 20.6352 27.1744 20.8014C27.0608 20.9677 27 21.1643 27 21.3656V44.2445C27 44.4303 27.0517 44.6123 27.1493 44.7703C27.2469 44.9283 27.3866 45.056 27.5527 45.1391L49.0527 55.8949C49.1916 55.9644 49.3447 56.0005 49.5 56.0005C49.6553 56.0005 49.8084 55.9644 49.9473 55.8949L71.4473 45.1391C71.6134 45.056 71.7531 44.9283 71.8507 44.7703C71.9483 44.6123 72 44.4303 72 44.2445V21.3656C72 21.1643 71.9392 20.9677 71.8256 20.8014C71.712 20.6352 71.5509 20.5071 71.3633 20.434L49.8633 12.0688C49.7383 12.0199 49.6048 11.9966 49.4707 12.0004ZM49.5 14.0727L69.0723 21.6898L49.5 30.5492L29.9277 21.6898L49.5 14.0727ZM29 22.3695L49 31.4203V53.6332L29 43.6273V22.3695ZM70 22.3695V43.6273L50 53.6332V31.4203L70 22.3695ZM14.9395 34.0004C12.2273 34.0363 10 36.271 10 39.0004V57.9809C10 59.4829 10.3803 60.969 11.0996 62.2895L22 82.2738V82.2758V87.0004C21.9981 87.1329 22.0226 87.2645 22.072 87.3874C22.1214 87.5104 22.1948 87.6223 22.2878 87.7167C22.3809 87.8111 22.4918 87.886 22.614 87.9371C22.7363 87.9883 22.8675 88.0146 23 88.0146C23.1325 88.0146 23.2637 87.9883 23.386 87.9371C23.5082 87.886 23.6191 87.8111 23.7122 87.7167C23.8052 87.6223 23.8786 87.5104 23.928 87.3874C23.9774 87.2645 24.0019 87.1329 24 87.0004V82.2758C24 81.9411 23.9151 81.6118 23.7578 81.3207L23.7559 81.3188L12.8555 61.3324C12.2969 60.307 12 59.1448 12 57.9809V39.0004C12 37.2337 13.4804 35.8404 15.2969 36.0141H15.2988C16.8347 36.1603 18 37.5706 18 39.1723V52.7445C18 53.0792 18.0842 53.4077 18.2441 53.7016V53.7035L19.9883 56.8988C19.8674 57.8334 20.0274 58.7837 20.4863 59.6254L25.459 68.7406C25.4899 68.7994 25.5322 68.8514 25.5834 68.8937C25.6346 68.936 25.6937 68.9676 25.7573 68.9868C25.8208 69.0059 25.8876 69.0123 25.9536 69.0054C26.0197 68.9985 26.0837 68.9785 26.1419 68.9466C26.2001 68.9147 26.2514 68.8715 26.2928 68.8195C26.3342 68.7676 26.3648 68.7079 26.3828 68.644C26.4009 68.5801 26.406 68.5133 26.398 68.4474C26.3899 68.3815 26.3688 68.3178 26.3359 68.2602L21.3652 59.1469C20.9154 58.3219 20.8156 57.3836 21.0801 56.4828C21.1332 56.3024 21.2106 56.1351 21.2891 55.9691C21.3582 55.8235 21.442 55.686 21.5293 55.5512C21.5545 55.5129 21.5769 55.4731 21.6035 55.4359C21.6801 55.3272 21.7664 55.225 21.8555 55.1254C21.9189 55.0558 21.9855 54.9886 22.0547 54.9242C22.1285 54.8543 22.2042 54.7868 22.2852 54.7231C22.3851 54.6453 22.4922 54.5757 22.6016 54.5082C22.6936 54.4511 22.7794 54.3878 22.8789 54.3383C24.5707 53.4974 26.6836 54.2808 27.6172 55.9926L36.4121 72.1137C37.4539 74.0226 38 76.1656 38 78.3402V87.0004C37.9981 87.1329 38.0226 87.2645 38.072 87.3874C38.1214 87.5104 38.1948 87.6223 38.2878 87.7167C38.3809 87.8111 38.4918 87.886 38.614 87.9371C38.7363 87.9883 38.8675 88.0146 39 88.0146C39.1325 88.0146 39.2637 87.9883 39.386 87.9371C39.5082 87.886 39.6191 87.8111 39.7122 87.7167C39.8052 87.6223 39.8786 87.5104 39.928 87.3874C39.9774 87.2645 40.0019 87.1329 40 87.0004V78.3402C40 75.8309 39.3702 73.3597 38.168 71.1566L29.373 55.0336C27.9527 52.4294 24.6985 51.2002 21.9883 52.5473C21.4123 52.8337 20.9118 53.2097 20.4922 53.6469L20 52.7465V52.7445V39.1723C20 36.596 18.1124 34.2736 15.4883 34.0238C15.3037 34.0062 15.1203 33.998 14.9395 34.0004ZM84.0605 34.0004C83.8797 33.998 83.6963 34.0062 83.5117 34.0238C80.8876 34.2736 79 36.596 79 39.1723V52.7445V52.7465L78.5078 53.6469C78.0884 53.2098 77.5878 52.8338 77.0117 52.5473C74.3015 51.2002 71.0473 52.4294 69.627 55.0336L60.832 71.1566C59.6298 73.3597 59 75.8309 59 78.3402V87.0004C58.9981 87.1329 59.0226 87.2645 59.072 87.3874C59.1214 87.5104 59.1948 87.6223 59.2878 87.7167C59.3809 87.8111 59.4918 87.886 59.614 87.9371C59.7363 87.9883 59.8675 88.0146 60 88.0146C60.1325 88.0146 60.2637 87.9883 60.386 87.9371C60.5082 87.886 60.6191 87.8111 60.7122 87.7167C60.8052 87.6223 60.8786 87.5104 60.928 87.3874C60.9774 87.2645 61.0019 87.1329 61 87.0004V78.3402C61 76.1656 61.5461 74.0226 62.5879 72.1137L71.3828 55.9926C72.3164 54.2808 74.4293 53.4974 76.1211 54.3383C76.2206 54.3878 76.3065 54.4511 76.3984 54.5082C76.507 54.5752 76.6136 54.644 76.7129 54.7211C76.7988 54.7887 76.8792 54.8614 76.957 54.9359C77.0185 54.9937 77.0779 55.0537 77.1348 55.1156C77.2302 55.2216 77.321 55.3313 77.4023 55.4477C77.4233 55.4771 77.4429 55.5074 77.4629 55.5375C77.5541 55.6769 77.639 55.8199 77.7109 55.9711L77.7246 56.0004C77.7968 56.157 77.8701 56.3135 77.9199 56.4828C78.1844 57.3836 78.0846 58.3219 77.6348 59.1469L72.6621 68.2602C72.5984 68.3767 72.5836 68.5138 72.6209 68.6413C72.6583 68.7687 72.7448 68.8761 72.8613 68.9398C72.9779 69.0036 73.115 69.0184 73.2424 68.981C73.3699 68.9436 73.4773 68.8572 73.541 68.7406L78.5137 59.6254C78.9723 58.7843 79.1322 57.8348 79.0117 56.9008L80.7559 53.7035V53.7016C80.9158 53.4077 81 53.0792 81 52.7445V39.1723C81 37.5706 82.1652 36.1603 83.7012 36.0141H83.7031C85.5195 35.8404 87 37.2337 87 39.0004V57.9809C87 59.1448 86.7031 60.3071 86.1445 61.3324L75.2441 81.3188C75.0842 81.6126 75 81.9411 75 82.2758V87.0004C74.9981 87.1329 75.0226 87.2645 75.072 87.3874C75.1214 87.5104 75.1948 87.6223 75.2878 87.7167C75.3809 87.8111 75.4918 87.886 75.614 87.9371C75.7363 87.9883 75.8675 88.0146 76 88.0146C76.1325 88.0146 76.2637 87.9883 76.386 87.9371C76.5082 87.886 76.6191 87.8111 76.7122 87.7167C76.8052 87.6223 76.8786 87.5104 76.928 87.3874C76.9774 87.2645 77.0019 87.1329 77 87.0004V82.2758V82.2738L87.9004 62.2895C88.6199 60.9687 89 59.4829 89 57.9809V39.0004C89 36.271 86.7727 34.0363 84.0605 34.0004ZM26.4121 57.2523C26.3334 57.2579 26.2571 57.282 26.1895 57.3227L23.1895 59.0356C23.0742 59.1013 22.9898 59.2102 22.9548 59.3382C22.9198 59.4662 22.9371 59.6029 23.0029 59.7182C23.0687 59.8334 23.1776 59.9178 23.3056 59.9528C23.4336 59.9878 23.5703 59.9705 23.6855 59.9047L26.6855 58.1898C26.7812 58.137 26.857 58.0544 26.9012 57.9544C26.9454 57.8545 26.9557 57.7428 26.9305 57.6365C26.9052 57.5302 26.8458 57.435 26.7614 57.3657C26.6769 57.2963 26.5721 57.2565 26.4629 57.2523C26.446 57.2515 26.429 57.2515 26.4121 57.2523ZM72.5215 57.2523C72.4135 57.2595 72.3108 57.3015 72.2288 57.3721C72.1467 57.4426 72.0897 57.5378 72.0664 57.6435C72.0431 57.7491 72.0546 57.8595 72.0994 57.958C72.1441 58.0565 72.2196 58.1379 72.3145 58.1898L75.3145 59.9047C75.3715 59.9373 75.4344 59.9583 75.4996 59.9665C75.5648 59.9748 75.631 59.9701 75.6944 59.9528C75.7578 59.9355 75.8171 59.9059 75.8691 59.8656C75.921 59.8253 75.9645 59.7752 75.9971 59.7182C76.0296 59.6611 76.0507 59.5982 76.0589 59.533C76.0672 59.4678 76.0625 59.4016 76.0452 59.3382C76.0279 59.2748 75.9982 59.2155 75.958 59.1636C75.9177 59.1116 75.8676 59.0681 75.8105 59.0356L72.8105 57.3227C72.7383 57.2796 72.6563 57.2554 72.5723 57.2523C72.5553 57.2515 72.5384 57.2515 72.5215 57.2523ZM26.9785 69.9945C26.8918 69.9958 26.8069 70.0197 26.7321 70.0638C26.6574 70.1078 26.5954 70.1706 26.5523 70.2458C26.5091 70.3211 26.4863 70.4063 26.486 70.493C26.4858 70.5798 26.5081 70.6651 26.5508 70.7406L27.0957 71.7406C27.1266 71.7994 27.1689 71.8515 27.2201 71.8937C27.2713 71.936 27.3304 71.9676 27.394 71.9868C27.4576 72.006 27.5243 72.0123 27.5904 72.0054C27.6564 71.9985 27.7204 71.9785 27.7786 71.9466C27.8369 71.9147 27.8882 71.8715 27.9295 71.8195C27.9709 71.7676 28.0015 71.7079 28.0196 71.6441C28.0376 71.5802 28.0428 71.5133 28.0347 71.4474C28.0267 71.3815 28.0056 71.3178 27.9727 71.2602L27.4277 70.2602C27.3846 70.1788 27.3198 70.111 27.2405 70.0641C27.1613 70.0172 27.0706 69.9932 26.9785 69.9945ZM72.0059 69.9945C71.9164 69.996 71.829 70.0214 71.7528 70.0681C71.6765 70.1148 71.6142 70.1812 71.5723 70.2602L71.0273 71.2602C70.9944 71.3178 70.9733 71.3815 70.9653 71.4474C70.9572 71.5133 70.9624 71.5802 70.9804 71.6441C70.9985 71.7079 71.0291 71.7676 71.0705 71.8195C71.1118 71.8715 71.1631 71.9147 71.2214 71.9466C71.2796 71.9785 71.3436 71.9985 71.4096 72.0054C71.4757 72.0123 71.5424 72.006 71.606 71.9868C71.6696 71.9676 71.7287 71.936 71.7799 71.8937C71.8311 71.8515 71.8734 71.7994 71.9043 71.7406L72.4492 70.7406C72.4926 70.664 72.5149 70.5772 72.5139 70.4891C72.513 70.401 72.4888 70.3148 72.4438 70.2391C72.3988 70.1634 72.3346 70.1009 72.2577 70.0579C72.1808 70.015 72.0939 69.9931 72.0059 69.9945Z" fill="#F23F34"/>
</svg>
