<svg width="100" height="100" viewBox="0 0 100 100" fill="none" xmlns="http://www.w3.org/2000/svg">
<path d="M62.0879 10.0039C61.7426 9.97344 61.3963 10.1236 61.1856 10.4199L29.1856 55.4199C28.9686 55.7249 28.9393 56.124 29.1113 56.457C29.2833 56.79 29.626 57 30 57H45.6914L37.0352 88.7363C36.9072 89.2043 37.1343 89.6963 37.5723 89.9043C37.7093 89.9693 37.856 90 38 90C38.315 90 38.6215 89.851 38.8145 89.58L70.8145 44.58C71.0315 44.275 71.0607 43.8759 70.8887 43.5429C70.7167 43.2099 70.374 43 70 43H54.3086L62.9649 11.2636C63.0929 10.7956 62.8657 10.3037 62.4277 10.0957C62.3182 10.0442 62.203 10.014 62.0879 10.0039ZM64.707 15.0039C64.5143 15.0297 64.3458 15.1669 64.291 15.3671L62.6543 21.3671C62.5813 21.6331 62.7389 21.9094 63.0059 21.9824C63.0499 21.9954 63.0927 22 63.1367 22C63.3557 22 63.5582 21.8538 63.6192 21.6308L65.2559 15.6308C65.3289 15.3648 65.1713 15.0905 64.9043 15.0175C64.8383 14.9993 64.7713 14.9952 64.707 15.0039ZM59.5547 16.164L52.0352 43.7363C51.9532 44.0373 52.0161 44.3594 52.2051 44.6074C52.3951 44.8544 52.688 45 53 45H68.0625L40.4453 83.8359L47.9649 56.2636C48.0469 55.9626 47.9839 55.6405 47.7949 55.3925C47.6049 55.1455 47.312 55 47 55H31.9375L59.5547 16.164ZM62.252 24.0039C62.059 24.0297 61.8899 24.1669 61.8359 24.3671L61.2891 26.3671C61.2161 26.6331 61.3736 26.9094 61.6406 26.9824C61.6846 26.9954 61.7295 27 61.7734 27C61.9934 27 62.1959 26.8538 62.2559 26.6308L62.8008 24.6308C62.8738 24.3648 62.7162 24.0905 62.4492 24.0175C62.3832 23.9993 62.3163 23.9952 62.252 24.0039ZM61.1602 28.0039C60.9673 28.0297 60.7989 28.1669 60.7442 28.3671L60.4727 29.3671C60.3997 29.6331 60.5553 29.9094 60.8223 29.9824C60.8663 29.9954 60.9121 30 60.9551 30C61.1751 30 61.3765 29.8538 61.4375 29.6308L61.709 28.6308C61.782 28.3648 61.6244 28.0905 61.3574 28.0175C61.2912 27.9993 61.2244 27.9952 61.1602 28.0039ZM60.3438 31.0039C60.1509 31.0296 59.9825 31.1669 59.9277 31.3671L57.7442 39.3671C57.6712 39.6331 57.8287 39.9094 58.0957 39.9824C58.1397 39.9954 58.1845 40 58.2285 40C58.4475 40 58.6499 39.8538 58.7109 39.6308L60.8926 31.6308C60.9656 31.3648 60.808 31.0905 60.541 31.0175C60.4748 30.999 60.408 30.9953 60.3438 31.0039ZM29.5 59C29.224 59 29 59.224 29 59.5C29 59.776 29.224 60 29.5 60L41.4805 60.0039L39.1992 68.3671C39.1262 68.6331 39.2838 68.9094 39.5508 68.9824C39.5948 68.9954 39.6377 69 39.6817 69C39.9017 69 40.1031 68.8548 40.1621 68.6328L42.6172 59.6347C42.6582 59.4847 42.6263 59.3232 42.5313 59.1992C42.4373 59.0752 42.2908 59.0039 42.1348 59.0039L29.5 59ZM39.0703 70.0039C38.8775 70.0296 38.7071 70.1669 38.6524 70.3671L38.1074 72.3671C38.0344 72.6331 38.192 72.9094 38.459 72.9824C38.503 72.9954 38.5478 73 38.5918 73C38.8118 73 39.0123 72.8538 39.0723 72.6308L39.6172 70.6308C39.6902 70.3648 39.5346 70.0905 39.2676 70.0175C39.2013 69.999 39.1346 69.9953 39.0703 70.0039ZM37.707 75.0039C37.5143 75.0297 37.3438 75.1669 37.2891 75.3671L33.4727 89.3671C33.3997 89.6331 33.5553 89.9094 33.8223 89.9824C33.8663 89.9954 33.9111 90 33.9551 90C34.1751 90 34.3765 89.8538 34.4375 89.6308L38.2559 75.6308C38.3289 75.3648 38.1713 75.0905 37.9043 75.0175C37.8383 74.9993 37.7713 74.9952 37.707 75.0039Z" fill="#F23F34"/>
</svg>
