<svg width="100" height="100" viewBox="0 0 100 100" fill="none" xmlns="http://www.w3.org/2000/svg">
<path d="M50.0001 17C46.1459 17 43.0001 20.1459 43.0001 24C43.0001 27.8541 46.1459 31 50.0001 31C53.8542 31 57.0001 27.8541 57.0001 24C57.0001 20.1459 53.8542 17 50.0001 17ZM50.0001 19C52.7734 19 55.0001 21.2267 55.0001 24C55.0001 26.7733 52.7734 29 50.0001 29C47.2268 29 45.0001 26.7733 45.0001 24C45.0001 21.2267 47.2268 19 50.0001 19ZM20.0001 23C16.1459 23 13.0001 26.1459 13.0001 30C13.0001 33.8541 16.1459 37 20.0001 37C23.8542 37 27.0001 33.8541 27.0001 30C27.0001 26.1459 23.8542 23 20.0001 23ZM80.0001 23C76.1459 23 73.0001 26.1459 73.0001 30C73.0001 33.8541 76.1459 37 80.0001 37C83.8542 37 87.0001 33.8541 87.0001 30C87.0001 26.1459 83.8542 23 80.0001 23ZM20.0001 25C22.7734 25 25.0001 27.2267 25.0001 30C25.0001 32.7733 22.7734 35 20.0001 35C17.2268 35 15.0001 32.7733 15.0001 30C15.0001 27.2267 17.2268 25 20.0001 25ZM80.0001 25C82.7734 25 85.0001 27.2267 85.0001 30C85.0001 32.7733 82.7734 35 80.0001 35C77.2268 35 75.0001 32.7733 75.0001 30C75.0001 27.2267 77.2268 25 80.0001 25ZM50.0001 33C44.4888 33 40.0001 37.4887 40.0001 43V51H33.0001C32.8676 50.9981 32.736 51.0226 32.6131 51.072C32.4901 51.1214 32.3782 51.1948 32.2838 51.2878C32.1894 51.3809 32.1145 51.4918 32.0633 51.614C32.0122 51.7363 31.9859 51.8675 31.9859 52C31.9859 52.1325 32.0122 52.2637 32.0633 52.386C32.1145 52.5082 32.1894 52.6191 32.2838 52.7122C32.3782 52.8052 32.4901 52.8786 32.6131 52.928C32.736 52.9774 32.8676 53.0019 33.0001 53H41.0001H59.0001H67.0001C67.1326 53.0019 67.2642 52.9774 67.3871 52.928C67.5101 52.8786 67.622 52.8052 67.7164 52.7122C67.8108 52.6191 67.8857 52.5082 67.9368 52.386C67.988 52.2637 68.0143 52.1325 68.0143 52C68.0143 51.8675 67.988 51.7363 67.9368 51.614C67.8857 51.4918 67.8108 51.3809 67.7164 51.2878C67.622 51.1948 67.5101 51.1214 67.3871 51.072C67.2642 51.0226 67.1326 50.9981 67.0001 51H60.0001V43C60.0001 37.4887 55.5114 33 50.0001 33ZM50.0001 35C54.4308 35 58.0001 38.5693 58.0001 43V51H42.0001V43C42.0001 38.5693 45.5694 35 50.0001 35ZM49.4903 37.0254C49.4786 37.0256 49.4669 37.0263 49.4552 37.0273C46.399 37.3031 44.0001 39.8757 44.0001 43V48.5C43.9992 48.5663 44.0114 48.632 44.0361 48.6935C44.0608 48.755 44.0975 48.811 44.144 48.8582C44.1905 48.9053 44.246 48.9428 44.3071 48.9684C44.3682 48.9939 44.4338 49.0071 44.5001 49.0071C44.5664 49.0071 44.632 48.9939 44.6931 48.9684C44.7542 48.9428 44.8097 48.9053 44.8562 48.8582C44.9027 48.811 44.9394 48.755 44.9641 48.6935C44.9888 48.632 45.001 48.5663 45.0001 48.5V43C45.0001 40.3863 46.9952 38.2536 49.545 38.0234C49.6742 38.012 49.794 37.9508 49.8789 37.8528C49.9639 37.7547 50.0074 37.6275 50.0003 37.498C49.9932 37.3684 49.9361 37.2467 49.8409 37.1585C49.7457 37.0704 49.62 37.0226 49.4903 37.0254ZM52.4884 37.6113C52.3763 37.6129 52.268 37.652 52.1809 37.7224C52.0937 37.7929 52.0328 37.8905 52.0078 37.9998C51.9827 38.109 51.9952 38.2235 52.043 38.3248C52.0909 38.4261 52.1713 38.5085 52.2716 38.5586C53.2063 39.0401 53.9724 39.7974 54.4493 40.7285C54.5099 40.8466 54.615 40.9358 54.7413 40.9765C54.8677 41.0171 55.005 41.0059 55.1231 40.9453C55.2412 40.8847 55.3304 40.7797 55.3711 40.6533C55.4118 40.5269 55.4005 40.3896 55.3399 40.2715C54.7648 39.1486 53.8439 38.2444 52.7286 37.6699C52.6547 37.6306 52.5721 37.6104 52.4884 37.6113ZM20.0001 39C15.5937 39 12.0001 42.5936 12.0001 47V60.5C12.0001 64.6304 15.3697 68 19.5001 68H30.3751L32.006 82.1152C32.0343 82.359 32.1512 82.5838 32.3345 82.747C32.5178 82.9101 32.7547 83.0002 33.0001 83H38.0001C38.2653 83 38.5196 82.8946 38.7072 82.7071C38.8947 82.5195 39.0001 82.2652 39.0001 82V62.5C39.0001 59.4744 36.5257 57 33.5001 57H28.0001V47C28.0001 42.5936 24.4065 39 20.0001 39ZM80.0001 39C75.5937 39 72.0001 42.5936 72.0001 47V57H66.5001C63.4745 57 61.0001 59.4744 61.0001 62.5V82C61.0001 82.2652 61.1055 82.5195 61.293 82.7071C61.4805 82.8946 61.7349 83 62.0001 83H67.0001C67.2455 83.0002 67.4824 82.9101 67.6657 82.747C67.849 82.5838 67.9659 82.359 67.9942 82.1152L69.6251 68H80.5001C84.6305 68 88.0001 64.6304 88.0001 60.5V47C88.0001 42.5936 84.4065 39 80.0001 39ZM20.0001 41C23.3257 41 26.0001 43.6744 26.0001 47V58H23.5001C21.5614 58 20.0001 56.4387 20.0001 54.5V50.5C20.0011 50.433 19.9887 50.3665 19.9636 50.3044C19.9384 50.2424 19.9011 50.186 19.8537 50.1386C19.8063 50.0912 19.7499 50.0539 19.6878 50.0287C19.6258 50.0036 19.5593 49.9911 19.4923 49.9922C19.4266 49.9932 19.3618 50.0072 19.3015 50.0332C19.2413 50.0593 19.1867 50.097 19.141 50.1442C19.0953 50.1913 19.0593 50.247 19.0352 50.3081C19.011 50.3691 18.9991 50.4343 19.0001 50.5V54.5C19.0001 56.9793 21.0208 59 23.5001 59H27.5001H33.5001C35.4445 59 37.0001 60.5556 37.0001 62.5V81H33.8907L32.2599 66.8848C32.2316 66.6413 32.1149 66.4168 31.932 66.2537C31.7491 66.0906 31.5127 66.0003 31.2677 66H19.5001C16.4505 66 14.0001 63.5496 14.0001 60.5V47C14.0001 43.6744 16.6745 41 20.0001 41ZM80.0001 41C83.3257 41 86.0001 43.6744 86.0001 47V60.5C86.0001 63.5496 83.5497 66 80.5001 66H68.7325C68.4875 66.0003 68.251 66.0906 68.0681 66.2537C67.8852 66.4168 67.7686 66.6413 67.7403 66.8848L66.1095 81H63.0001V62.5C63.0001 60.5556 64.5557 59 66.5001 59H73.0001H76.5001C78.9793 59 81.0001 56.9793 81.0001 54.5V50.5C81.0011 50.433 80.9887 50.3665 80.9636 50.3044C80.9384 50.2424 80.9011 50.186 80.8537 50.1386C80.8063 50.0912 80.7499 50.0539 80.6878 50.0287C80.6258 50.0036 80.5593 49.9911 80.4923 49.9922C80.4266 49.9932 80.3618 50.0072 80.3015 50.0332C80.2413 50.0593 80.1867 50.097 80.141 50.1442C80.0953 50.1913 80.0593 50.247 80.0352 50.3081C80.011 50.3691 79.9991 50.4343 80.0001 50.5V54.5C80.0001 56.4387 78.4388 58 76.5001 58H74.0001V47C74.0001 43.6744 76.6745 41 80.0001 41ZM55.4708 41.9922C55.401 41.9926 55.332 42.0077 55.2683 42.0364C55.2046 42.0651 55.1477 42.1069 55.1011 42.159C55.0546 42.211 55.0194 42.2723 54.998 42.3388C54.9766 42.4052 54.9693 42.4755 54.9767 42.5449C54.9907 42.6998 55.0001 42.8507 55.0001 43V43.5C54.9992 43.5663 55.0114 43.632 55.0361 43.6935C55.0608 43.755 55.0975 43.811 55.144 43.8582C55.1905 43.9053 55.246 43.9428 55.3071 43.9684C55.3682 43.9939 55.4338 44.0071 55.5001 44.0071C55.5664 44.0071 55.632 43.9939 55.6931 43.9684C55.7542 43.9428 55.8097 43.9053 55.8562 43.8582C55.9027 43.811 55.9394 43.755 55.9641 43.6935C55.9888 43.632 56.001 43.5663 56.0001 43.5V43C56.0001 42.8113 55.9887 42.6302 55.9728 42.4551C55.9633 42.3287 55.9063 42.2106 55.8131 42.1246C55.7199 42.0387 55.5976 41.9914 55.4708 41.9922ZM19.4923 45.9922C19.4266 45.9932 19.3618 46.0072 19.3015 46.0332C19.2413 46.0593 19.1867 46.097 19.141 46.1442C19.0953 46.1913 19.0593 46.247 19.0352 46.3081C19.011 46.3691 18.9991 46.4343 19.0001 46.5V48.5C18.9992 48.5663 19.0114 48.632 19.0361 48.6935C19.0608 48.755 19.0975 48.811 19.144 48.8582C19.1905 48.9053 19.246 48.9428 19.3071 48.9684C19.3682 48.9939 19.4338 49.0071 19.5001 49.0071C19.5664 49.0071 19.632 48.9939 19.6931 48.9684C19.7542 48.9428 19.8097 48.9053 19.8562 48.8582C19.9027 48.811 19.9394 48.755 19.9641 48.6935C19.9888 48.632 20.001 48.5663 20.0001 48.5V46.5C20.0011 46.433 19.9887 46.3665 19.9636 46.3044C19.9384 46.2424 19.9011 46.186 19.8537 46.1386C19.8063 46.0912 19.7499 46.0539 19.6878 46.0287C19.6258 46.0036 19.5593 45.9911 19.4923 45.9922ZM80.4923 45.9922C80.4266 45.9932 80.3618 46.0072 80.3015 46.0332C80.2413 46.0593 80.1867 46.097 80.141 46.1442C80.0953 46.1913 80.0593 46.247 80.0352 46.3081C80.011 46.3691 79.9991 46.4343 80.0001 46.5V48.5C79.9992 48.5663 80.0114 48.632 80.0361 48.6935C80.0608 48.755 80.0975 48.811 80.144 48.8582C80.1905 48.9053 80.246 48.9428 80.3071 48.9684C80.3682 48.9939 80.4338 49.0071 80.5001 49.0071C80.5664 49.0071 80.632 48.9939 80.6931 48.9684C80.7542 48.9428 80.8096 48.9053 80.8562 48.8582C80.9027 48.811 80.9394 48.755 80.9641 48.6935C80.9888 48.632 81.001 48.5663 81.0001 48.5V46.5C81.0011 46.433 80.9887 46.3665 80.9636 46.3044C80.9384 46.2424 80.9011 46.186 80.8537 46.1386C80.8063 46.0912 80.7499 46.0539 80.6878 46.0287C80.6258 46.0036 80.5593 45.9911 80.4923 45.9922ZM8.98447 46.9863C8.71959 46.9905 8.46718 47.0995 8.28263 47.2896C8.09808 47.4796 7.99647 47.7351 8.00009 48V61C8.00009 67.0634 12.9367 72 19.0001 72H25.0001C25.1326 72.0019 25.2642 71.9774 25.3871 71.928C25.5101 71.8786 25.622 71.8052 25.7164 71.7122C25.8108 71.6191 25.8857 71.5082 25.9368 71.386C25.988 71.2637 26.0143 71.1325 26.0143 71C26.0143 70.8675 25.988 70.7363 25.9368 70.614C25.8857 70.4918 25.8108 70.3809 25.7164 70.2878C25.622 70.1948 25.5101 70.1214 25.3871 70.072C25.2642 70.0226 25.1326 69.9981 25.0001 70H19.0001C14.0175 70 10.0001 65.9826 10.0001 61V48C10.0019 47.8662 9.97689 47.7334 9.92648 47.6095C9.87606 47.4855 9.80129 47.373 9.70658 47.2785C9.61188 47.1839 9.49917 47.1094 9.37514 47.0592C9.2511 47.009 9.11825 46.9842 8.98447 46.9863ZM90.9845 46.9863C90.7196 46.9905 90.4672 47.0995 90.2826 47.2896C90.0981 47.4796 89.9965 47.7351 90.0001 48V61C90.0001 65.9826 85.9827 70 81.0001 70H75.0001C74.8676 69.9981 74.736 70.0226 74.613 70.072C74.4901 70.1214 74.3782 70.1948 74.2838 70.2878C74.1894 70.3809 74.1145 70.4918 74.0633 70.614C74.0122 70.7363 73.9858 70.8675 73.9858 71C73.9858 71.1325 74.0122 71.2637 74.0633 71.386C74.1145 71.5082 74.1894 71.6191 74.2838 71.7122C74.3782 71.8052 74.4901 71.8786 74.613 71.928C74.736 71.9774 74.8676 72.0019 75.0001 72H81.0001C87.0635 72 92.0001 67.0634 92.0001 61V48C92.0019 47.8662 91.9769 47.7334 91.9265 47.6095C91.8761 47.4855 91.8013 47.373 91.7066 47.2785C91.6119 47.1839 91.4992 47.1094 91.3751 47.0592C91.2511 47.009 91.1183 46.9842 90.9845 46.9863Z" fill="#F23F34"/>
</svg>
