<svg width="100" height="100" viewBox="0 0 100 100" fill="none" xmlns="http://www.w3.org/2000/svg">
<path d="M29 17C22.383 17 17 22.383 17 29V71C17 77.617 22.383 83 29 83H71C77.617 83 83 77.617 83 71V29C83 22.383 77.617 17 71 17H29ZM29 19H71C76.514 19 81 23.486 81 29V71C81 76.514 76.514 81 71 81H29C23.486 81 19 76.514 19 71V29C19 23.486 23.486 19 29 19ZM29 25C26.794 25 25 26.794 25 29V71C25 73.206 26.794 75 29 75H71C73.206 75 75 73.206 75 71V68.5C75 68.224 74.776 68 74.5 68C74.224 68 74 68.224 74 68.5V71C74 72.654 72.654 74 71 74H29C27.346 74 26 72.654 26 71V29C26 27.346 27.346 26 29 26H32.5C32.776 26 33 25.776 33 25.5C33 25.224 32.776 25 32.5 25H29ZM34.5 25C34.224 25 34 25.224 34 25.5C34 25.776 34.224 26 34.5 26H36.5C36.776 26 37 25.776 37 25.5C37 25.224 36.776 25 36.5 25H34.5ZM39.5 25C39.224 25 39 25.224 39 25.5C39 25.776 39.224 26 39.5 26H42.5C42.776 26 43 25.776 43 25.5C43 25.224 42.776 25 42.5 25H39.5ZM45.5 25C45.224 25 45 25.224 45 25.5C45 25.776 45.224 26 45.5 26H71C72.654 26 74 27.346 74 29V58.5C74 58.776 74.224 59 74.5 59C74.776 59 75 58.776 75 58.5V29C75 26.794 73.206 25 71 25H45.5ZM66.5703 38C65.9203 37.997 65.2695 38.2244 64.7715 38.6934L47.4746 56.0645L37.1816 45.6504C36.1646 44.7254 34.5804 44.7994 33.6504 45.8184C33.2014 46.3124 32.9729 46.9521 33.0039 47.6191C33.0349 48.2861 33.3238 48.9 33.8008 49.332L45.8164 61.3496C46.2774 61.7696 46.876 62 47.5 62C48.141 62 48.7496 61.7586 49.2266 61.3086L68.2168 42.3184C68.7028 41.8594 68.979 41.2373 68.998 40.5703C69.017 39.9023 68.7754 39.2682 68.3164 38.7832C67.8574 38.2972 67.2383 38.019 66.5703 38ZM66.541 39.002C66.942 39.014 67.3148 39.1787 67.5898 39.4707C67.8648 39.7617 68.009 40.143 67.998 40.543C67.987 40.944 67.8215 41.3166 67.5195 41.6016L48.5293 60.5918C47.9763 61.1118 47.0338 61.104 46.5078 60.627L34.4902 48.6094C34.1942 48.3404 34.021 47.9723 34.002 47.5723C33.983 47.1723 34.1216 46.7882 34.3906 46.4922C34.6896 46.1642 35.1008 45.998 35.5098 45.998C35.8638 45.998 36.2152 46.1221 36.4902 46.3711L47.1191 57.125C47.2121 57.219 47.3397 57.2734 47.4727 57.2734H47.4746C47.6066 57.2734 47.7341 57.221 47.8281 57.127L65.4707 39.4102C65.7617 39.1342 66.149 38.983 66.541 39.002Z" fill="#F23F34"/>
</svg>
