<svg width="100" height="100" viewBox="0 0 100 100" fill="none" xmlns="http://www.w3.org/2000/svg">
<path d="M46.5 13C29.6675 13 16 26.6675 16 43.5C16 45.0846 16.1272 46.6374 16.3594 48.1523C16.3764 48.2594 16.4107 48.3629 16.4609 48.459C17.1621 52.7456 18.7092 56.7514 21.0059 60.2402C21.0065 60.2402 21.0072 60.2402 21.0078 60.2402C24.2043 65.0927 26 70.7121 26 76.498V87C25.9981 87.1325 26.0226 87.2641 26.072 87.387C26.1214 87.51 26.1948 87.6219 26.2878 87.7163C26.3809 87.8107 26.4918 87.8856 26.614 87.9368C26.7363 87.9879 26.8675 88.0142 27 88.0142C27.1325 88.0142 27.2637 87.9879 27.386 87.9368C27.5082 87.8856 27.6191 87.8107 27.7122 87.7163C27.8052 87.6219 27.8786 87.51 27.928 87.387C27.9774 87.2641 28.0019 87.1325 28 87V76.498C28 70.298 26.0752 64.2982 22.6777 59.1406C20.4815 55.8043 18.9857 51.9735 18.3555 47.8496C18.3486 47.8054 18.3389 47.7617 18.3262 47.7188C18.1205 46.3382 18 44.9336 18 43.5C18 27.7485 30.7485 15 46.5 15C60.9124 15 72.802 25.6834 74.7227 39.5566C74.8057 40.1552 74.9889 40.7498 75.293 41.3008C75.298 41.31 75.3032 41.3191 75.3086 41.3281L81.8164 52.2793C82.2243 52.9661 81.9551 53.8139 81.2246 54.1387L74.5938 57.0859C74.417 57.1645 74.2668 57.2927 74.1614 57.455C74.056 57.6172 74 57.8065 74 58V66C74 70.9826 69.9826 75 65 75H59.5352H59.5H59H50.5C50.4337 74.9991 50.368 75.0113 50.3065 75.036C50.245 75.0607 50.189 75.0974 50.1418 75.1439C50.0947 75.1904 50.0572 75.2459 50.0316 75.307C50.0061 75.3681 49.9929 75.4337 49.9929 75.5C49.9929 75.5663 50.0061 75.6319 50.0316 75.693C50.0572 75.7541 50.0947 75.8096 50.1418 75.8561C50.189 75.9026 50.245 75.9393 50.3065 75.964C50.368 75.9887 50.4337 76.0009 50.5 76H58V87C57.9981 87.1325 58.0226 87.2641 58.072 87.387C58.1214 87.51 58.1948 87.6219 58.2878 87.7163C58.3809 87.8107 58.4918 87.8856 58.614 87.9368C58.7363 87.9879 58.8675 88.0142 59 88.0142C59.1325 88.0142 59.2637 87.9879 59.386 87.9368C59.5082 87.8856 59.6191 87.8107 59.7122 87.7163C59.8052 87.6219 59.8786 87.51 59.928 87.387C59.9774 87.2641 60.0019 87.1325 60 87V77H65C71.0634 77 76 72.0634 76 66V58.6504L82.0371 55.9668C83.8306 55.1695 84.5372 52.945 83.5352 51.2578L77.0449 40.334V40.332C76.8715 40.0174 76.7579 39.6621 76.7051 39.2812C74.6562 24.4815 61.9786 13.0857 46.6426 13.0137C46.5954 13.0057 46.5478 13.0011 46.5 13ZM46.9922 26.0156C46.0908 26.0157 45.195 26.0889 44.3125 26.2344C43.5815 26.3564 43.0607 27.0043 43.0977 27.7383C43.1567 29.0393 42.741 29.7789 41.707 30.2109C40.664 30.6509 39.8428 30.4248 38.9648 29.4668C38.4618 28.9018 37.6253 28.8177 37.0293 29.2617C35.5633 30.3237 34.2843 31.6083 33.2363 33.0723C32.7943 33.6713 32.8779 34.502 33.4219 34.998C34.3509 35.862 34.5786 36.6619 34.1836 37.6719C33.7686 38.7309 33.0148 39.1739 31.7168 39.1309C30.9838 39.0949 30.3523 39.6365 30.2383 40.3555C29.9533 42.1185 29.957 43.9256 30.25 45.7266C30.366 46.4406 31.0138 46.9822 31.7168 46.9492C32.9728 46.9102 33.701 47.335 34.127 48.334C34.562 49.363 34.3516 50.1805 33.4336 51.0605C32.9096 51.5545 32.8299 52.3708 33.2539 52.9688C34.3269 54.4448 35.6066 55.7217 37.0586 56.7637L37.0605 56.7617L37.3301 56.9141C37.8471 57.1301 38.4792 57.0221 38.8262 56.7031C38.9012 56.6481 39.0099 56.5618 39.0469 56.5078C39.7589 55.7618 40.731 55.5114 41.582 55.8574L41.7129 55.9102H41.7148C42.5738 56.3122 43.0551 57.111 43.0391 58.127C43.0361 59.02 43.6082 59.6796 44.4922 59.8066C45.3122 59.9306 46.1433 59.9922 46.9863 59.9922C47.7933 59.9922 48.6114 59.9344 49.4414 59.8164L49.6641 59.7734C50.3631 59.6544 50.8691 59.0485 50.8691 58.3125C50.8461 57.1415 51.2061 56.4546 52.0781 56.0176C53.1621 55.4696 54.0408 55.6582 55.0078 56.6562C55.5048 57.1652 56.3156 57.2363 56.8926 56.8223C58.3666 55.7733 59.6528 54.5038 60.7148 53.0488L60.7188 53.043C61.1387 52.458 61.064 51.6406 60.543 51.1406C59.629 50.2656 59.4068 49.4658 59.8008 48.4668C60.2188 47.4118 60.9475 46.9707 62.2715 47.0117C62.9285 47.0267 63.5231 46.6074 63.7051 45.9844C64.0921 44.7234 64.1017 41.3018 63.7207 40.1738C63.5147 39.5628 62.9193 39.1585 62.2812 39.1855C60.9883 39.2345 60.2737 38.8191 59.8457 37.7871C59.4127 36.7471 59.6431 35.9214 60.6211 35.0234C61.1621 34.5224 61.2483 33.6965 60.8203 33.1055C59.7483 31.6105 58.4647 30.3214 57.0117 29.2754C56.4087 28.8344 55.5733 28.9204 55.0703 29.4824C54.0343 30.6424 53.1262 30.5144 52.5332 30.3164C51.3542 29.9194 50.8755 29.1476 50.9355 27.7266C50.9635 26.9796 50.429 26.3354 49.707 26.2324C48.8 26.0874 47.8936 26.0155 46.9922 26.0156ZM47.0039 28.0156C47.6435 28.0159 48.2875 28.0591 48.9355 28.1426C49.0105 30.6936 50.5624 31.7648 51.8984 32.2148C53.0164 32.5878 54.6408 32.6858 56.2168 31.1758C57.2238 31.9518 58.1299 32.8635 58.9199 33.8965C57.2939 35.6265 57.505 37.3677 57.998 38.5547C58.489 39.7377 59.5623 41.1165 61.9023 41.1875C62.0333 42.1005 62.039 44.0046 61.877 45.0176C59.487 45.1156 58.4175 46.5254 57.9395 47.7324C57.4895 48.8744 57.3043 50.5513 58.8223 52.2363C58.0343 53.2463 57.1198 54.1487 56.0938 54.9277C54.2327 53.2587 52.4106 53.6115 51.1816 54.2305C49.7356 54.9555 48.961 56.1879 48.877 57.8789C47.59 58.0379 46.3052 58.0313 45.0352 57.8633C44.9662 56.1173 43.9915 54.6944 42.3945 54.0254L42.1992 53.9512C40.7372 53.4172 39.143 53.749 37.873 54.877C36.857 54.102 35.9443 53.1891 35.1523 52.1641C36.6973 50.4451 36.4657 48.7267 35.9707 47.5547C35.4837 46.4117 34.4321 45.076 32.1621 44.959C31.9911 43.673 31.9864 42.3899 32.1504 41.1289C34.5164 41.0189 35.5748 39.6083 36.0488 38.4023C36.4998 37.2483 36.6828 35.5608 35.1328 33.8828C35.9108 32.8628 36.813 31.9511 37.832 31.1621C39.557 32.7811 41.2984 32.5547 42.4844 32.0547C43.6644 31.5617 45.0355 30.4866 45.1035 28.1406C45.73 28.0581 46.3643 28.0154 47.0039 28.0156ZM47 35C44.026 35 41.3148 36.6346 39.9238 39.2656C39.7948 39.5096 39.8888 39.8124 40.1328 39.9414C40.2068 39.9804 40.2862 40 40.3652 40C40.5442 40 40.7186 39.9024 40.8086 39.7324C41.3682 38.674 42.1785 37.8115 43.1367 37.1758L43.8809 40.5254C43.3376 41.2084 43 42.0612 43 43C43 44.0622 43.422 45.0234 44.0996 45.7402L41.75 47.6211C40.9602 46.7274 40.3897 45.6283 40.1406 44.4004C40.0856 44.1294 39.8238 43.9568 39.5508 44.0098C39.2798 44.0648 39.1052 44.3286 39.1602 44.5996C39.9122 48.3076 43.21 51 47 51C48.112 51 49.1872 50.776 50.1992 50.334C50.4522 50.224 50.567 49.9288 50.457 49.6758C50.347 49.4218 50.0538 49.307 49.8008 49.418C48.9158 49.804 47.974 50 47 50C46.5257 50 46.0608 49.9476 45.6094 49.8555L47.457 46.9531C49.1627 46.7557 50.5456 45.4994 50.9043 43.8477L53.7754 44.7188C53.4352 46.0555 52.7134 47.2807 51.668 48.2168C51.462 48.4008 51.443 48.7178 51.627 48.9238C51.727 49.0348 51.863 49.0898 52 49.0898C52.119 49.0898 52.238 49.0489 52.334 48.9629C54.029 47.4469 55.002 45.272 55.002 43C55.002 41.253 54.4474 39.5922 53.4004 38.1992C53.2354 37.9772 52.9222 37.9346 52.7012 38.0996C52.4792 38.2656 52.4356 38.5798 52.6016 38.8008C53.5166 40.0198 54 41.471 54 43C54 43.2452 53.9864 43.4888 53.9609 43.7305L50.9824 42.8262C50.8908 40.7395 49.2045 39.0696 47.1094 39.0117L47.4414 36.0215C47.7642 36.0416 48.0851 36.0767 48.4004 36.1406C48.6724 36.1956 48.9352 36.019 48.9902 35.748C49.0442 35.478 48.8706 35.2152 48.5996 35.1602C48.0756 35.0542 47.538 35 47 35ZM50.543 35.8672C50.3486 35.8503 50.1541 35.9471 50.0566 36.1309C49.9276 36.3749 50.0226 36.6776 50.2656 36.8066C50.5946 36.9796 50.9072 37.1784 51.1992 37.3984C51.2892 37.4664 51.395 37.5 51.5 37.5C51.651 37.5 51.8004 37.4318 51.8984 37.3008C52.0644 37.0798 52.0218 36.7656 51.8008 36.5996C51.4668 36.3486 51.1084 36.1218 50.7344 35.9238C50.6731 35.8918 50.6078 35.8728 50.543 35.8672ZM46.4336 36.0391L46.0918 39.1133C45.5949 39.2296 45.1333 39.4341 44.7266 39.7168L44.0469 36.6621C44.7895 36.3163 45.5949 36.1069 46.4336 36.0391ZM47 41C48.103 41 49 41.897 49 43C49 44.103 48.103 45 47 45C45.897 45 45 44.103 45 43C45 41.897 45.897 41 47 41ZM44.8945 46.3867C45.3145 46.6489 45.7825 46.8362 46.2871 46.9277L44.6035 49.5742C43.8197 49.2869 43.104 48.8569 42.4746 48.3223L44.8945 46.3867ZM37.625 55.1074C37.597 55.1364 37.5681 55.1653 37.5391 55.1953C37.569 55.159 37.5888 55.1374 37.5918 55.1328C37.6029 55.1241 37.6138 55.1151 37.625 55.1074ZM46.5 75C46.4337 74.9991 46.368 75.0113 46.3065 75.036C46.245 75.0607 46.189 75.0974 46.1418 75.1439C46.0947 75.1904 46.0572 75.2459 46.0316 75.307C46.0061 75.3681 45.9929 75.4337 45.9929 75.5C45.9929 75.5663 46.0061 75.6319 46.0316 75.693C46.0572 75.7541 46.0947 75.8096 46.1418 75.8561C46.189 75.9026 46.245 75.9393 46.3065 75.964C46.368 75.9887 46.4337 76.0009 46.5 76H48.5C48.5663 76.0009 48.632 75.9887 48.6935 75.964C48.755 75.9393 48.811 75.9026 48.8582 75.8561C48.9053 75.8096 48.9428 75.7541 48.9684 75.693C48.9939 75.6319 49.0071 75.5663 49.0071 75.5C49.0071 75.4337 48.9939 75.3681 48.9684 75.307C48.9428 75.2459 48.9053 75.1904 48.8582 75.1439C48.811 75.0974 48.755 75.0607 48.6935 75.036C48.632 75.0113 48.5663 74.9991 48.5 75H46.5Z" fill="#F23F34"/>
</svg>
