<svg width="26" height="26" viewBox="0 0 26 26" fill="none" xmlns="http://www.w3.org/2000/svg">
<path d="M13.0013 2.1665C7.02784 2.1665 2.16797 7.02638 2.16797 12.9998C2.16797 18.9733 7.02784 23.8332 13.0013 23.8332C18.9748 23.8332 23.8346 18.9733 23.8346 12.9998C23.8346 7.02638 18.9748 2.1665 13.0013 2.1665ZM13.0013 3.7915C18.0966 3.7915 22.2096 7.90459 22.2096 12.9998C22.2096 18.0951 18.0966 22.2082 13.0013 22.2082C7.90605 22.2082 3.79297 18.0951 3.79297 12.9998C3.79297 7.90459 7.90605 3.7915 13.0013 3.7915ZM13.0013 7.58317C12.714 7.58317 12.4384 7.69731 12.2353 7.90047C12.0321 8.10364 11.918 8.37919 11.918 8.6665C11.918 8.95382 12.0321 9.22937 12.2353 9.43254C12.4384 9.6357 12.714 9.74984 13.0013 9.74984C13.2886 9.74984 13.5642 9.6357 13.7673 9.43254C13.9705 9.22937 14.0846 8.95382 14.0846 8.6665C14.0846 8.37919 13.9705 8.10364 13.7673 7.90047C13.5642 7.69731 13.2886 7.58317 13.0013 7.58317ZM12.9886 11.3632C12.7733 11.3666 12.5681 11.4552 12.4182 11.6098C12.2682 11.7643 12.1857 11.972 12.1888 12.1873V18.1457C12.1873 18.2533 12.2072 18.3602 12.2473 18.4601C12.2875 18.5601 12.3471 18.651 12.4227 18.7277C12.4983 18.8043 12.5884 18.8652 12.6877 18.9068C12.787 18.9483 12.8936 18.9697 13.0013 18.9697C13.109 18.9697 13.2156 18.9483 13.3149 18.9068C13.4142 18.8652 13.5043 18.8043 13.5799 18.7277C13.6555 18.651 13.7151 18.5601 13.7553 18.4601C13.7954 18.3602 13.8153 18.2533 13.8138 18.1457V12.1873C13.8154 12.0786 13.7951 11.9706 13.7541 11.8699C13.7132 11.7691 13.6525 11.6776 13.5755 11.6007C13.4986 11.5239 13.407 11.4633 13.3061 11.4224C13.2053 11.3816 13.0974 11.3615 12.9886 11.3632Z" fill="#F23F34"/>
</svg>
