<svg width="36" height="36" viewBox="0 0 36 36" fill="none" xmlns="http://www.w3.org/2000/svg">
<path d="M2.625 7.5C2.0025 7.5 1.5 8.0025 1.5 8.625C1.5 9.2475 2.0025 9.75 2.625 9.75H12.375C12.9975 9.75 13.5 10.2525 13.5 10.875C13.5 11.4975 12.9975 12 12.375 12H2.625C2.0025 12 1.5 12.5025 1.5 13.125C1.5 13.7475 2.0025 14.25 2.625 14.25H9.375C9.9975 14.25 10.5 14.7525 10.5 15.375C10.5 15.9975 9.9975 16.5 9.375 16.5H2.625C2.0025 16.5 1.5 17.0025 1.5 17.625C1.5 18.2475 2.0025 18.75 2.625 18.75H6.375C6.9975 18.75 7.5 19.2525 7.5 19.875C7.5 20.4975 6.9975 21 6.375 21H2.625C2.0025 21 1.5 21.5025 1.5 22.125V23.625C1.5 25.485 3.015 27 4.875 27H5.40967C5.90169 28.7277 7.49278 30 9.375 30C11.2572 30 12.8483 28.7277 13.3403 27H20.25V10.875C20.25 9.015 18.735 7.5 16.875 7.5H2.625ZM22.5 10.5V25.875C22.5 28.1475 24.3525 30 26.625 30C28.5072 30 30.0983 28.7277 30.5903 27H31.125C32.9925 27 34.5 25.4925 34.5 23.625V18.8555C34.5 18.383 34.402 17.9104 34.207 17.4829L31.9951 12.5024C31.4551 11.2874 30.2481 10.5 28.9131 10.5H22.5ZM25.5 12.75H28.9131C29.3578 12.75 29.7599 13.0115 29.9399 13.418L31.1733 16.1953C31.3938 16.6911 31.0315 17.25 30.4893 17.25H25.5C25.086 17.25 24.75 16.914 24.75 16.5V13.5C24.75 13.086 25.086 12.75 25.5 12.75ZM9.375 24C10.41 24 11.25 24.84 11.25 25.875C11.25 26.91 10.41 27.75 9.375 27.75C8.34 27.75 7.5 26.91 7.5 25.875C7.5 24.84 8.34 24 9.375 24ZM26.625 24C27.66 24 28.5 24.84 28.5 25.875C28.5 26.91 27.66 27.75 26.625 27.75C25.59 27.75 24.75 26.91 24.75 25.875C24.75 24.84 25.59 24 26.625 24Z" fill="#F23F34" style="fill:#F23F34;fill:color(display-p3 0.9490 0.2471 0.2039);fill-opacity:1;"/>
</svg>
