<svg width="23" height="11" viewBox="0 0 23 11" fill="none" xmlns="http://www.w3.org/2000/svg">
<path d="M16.286 0.617267C16.4025 0.278519 16.7072 0.0383485 17.0638 0.00429433C17.3417 -0.0225904 17.6159 0.0777792 17.8095 0.276726L23 5.46728L17.8095 10.6578C17.5782 10.8962 17.2359 10.9912 16.9151 10.9052C16.5943 10.8191 16.3451 10.5664 16.2627 10.2456C16.1802 9.92297 16.2788 9.58243 16.519 9.35302L19.4871 6.38494H0.961672C0.454446 6.40824 0.0242903 6.01752 0.000990169 5.51029C-0.0223098 5.00307 0.368415 4.57291 0.875641 4.54961C0.904318 4.54782 0.932995 4.54782 0.961672 4.54961H19.4871L16.519 1.58153C16.2591 1.33419 16.1677 0.957807 16.286 0.617267Z" fill="#373737" fill-opacity="0.3"/>
</svg>
