<svg width="16" height="12" viewBox="0 0 16 12" fill="none" xmlns="http://www.w3.org/2000/svg">
<path d="M6.29796 0.318012C6.58226 0.313498 6.86815 0.417179 7.08843 0.630512C7.52927 1.05718 7.5406 1.76086 7.11393 2.20169L4.51139 4.88887H14.1115C14.7252 4.88887 15.2227 5.38637 15.2227 5.99998C15.2227 6.61359 14.7252 7.11109 14.1115 7.11109H4.51139L7.11393 9.79881C7.5406 10.2396 7.52927 10.9425 7.08843 11.3694C6.87288 11.5783 6.59447 11.6825 6.31586 11.6825C6.02559 11.6825 5.73531 11.5689 5.51725 11.3439L1.09125 6.77309C0.674309 6.34226 0.674309 5.65824 1.09125 5.22741L5.51725 0.656011C5.73086 0.435456 6.01365 0.322526 6.29796 0.318012Z" fill="black"/>
</svg>
