<svg width="30" height="30" viewBox="0 0 30 30" fill="none" xmlns="http://www.w3.org/2000/svg">
<g opacity="0.2">
<path d="M12.113 6.00021C12.5394 5.99344 12.9682 6.14896 13.2987 6.46896C13.9599 7.10896 13.9769 8.16448 13.3369 8.82573L9.43311 12.8565H23.8333C24.7538 12.8565 25.5 13.6027 25.5 14.5232C25.5 15.4436 24.7538 16.1898 23.8333 16.1898H9.43311L13.3369 20.2214C13.9769 20.8827 13.9599 21.9369 13.2987 22.5774C12.9753 22.8907 12.5577 23.0469 12.1398 23.0469C11.7044 23.0469 11.269 22.8766 10.9419 22.5391L4.3029 15.6828C3.67748 15.0366 3.67748 14.0106 4.3029 13.3643L10.9419 6.50721C11.2623 6.17638 11.6865 6.00698 12.113 6.00021Z" fill="black"/>
</g>
</svg>
