<svg width="22" height="22" viewBox="0 0 22 22" fill="none" xmlns="http://www.w3.org/2000/svg">
<path d="M10.9997 20.1663C16.0623 20.1663 20.1663 16.0623 20.1663 10.9997C20.1663 5.93706 16.0623 1.83301 10.9997 1.83301C5.93706 1.83301 1.83301 5.93706 1.83301 10.9997C1.83301 16.0623 5.93706 20.1663 10.9997 20.1663Z" fill="url(#paint0_linear_2428_1024)"/>
<path d="M11.0085 16.9587C10.6105 16.9729 10.2228 16.8304 9.92881 16.5618C9.79319 16.4415 9.68501 16.2934 9.61161 16.1275C9.53821 15.9617 9.50131 15.7821 9.50339 15.6008C9.49839 15.418 9.53438 15.2364 9.60872 15.0694C9.68306 14.9024 9.79386 14.7541 9.93298 14.6355C10.2319 14.3801 10.6156 14.246 11.0085 14.2595C11.4011 14.2439 11.7848 14.38 12.0798 14.6397C12.215 14.7599 12.3224 14.9082 12.3944 15.0742C12.4664 15.2402 12.5014 15.4199 12.4969 15.6008C12.5018 15.7831 12.4675 15.9643 12.3963 16.1322C12.325 16.3001 12.2185 16.4507 12.0839 16.5737C11.7893 16.8374 11.4034 16.9755 11.0085 16.9587ZM12.3324 5.47159L12.0458 12.7259C12.0415 12.8325 11.9961 12.9334 11.9192 13.0073C11.8422 13.0813 11.7396 13.1226 11.6329 13.1227H10.3346C10.2276 13.1227 10.1248 13.0812 10.0478 13.007C9.97084 12.9327 9.92561 12.8315 9.92166 12.7247L9.65056 5.47099C9.64846 5.41545 9.65759 5.36005 9.67739 5.30811C9.6972 5.25618 9.72727 5.20877 9.76582 5.16872C9.80437 5.12867 9.85059 5.09681 9.90174 5.07503C9.95288 5.05326 10.0079 5.04202 10.0635 5.04199H11.9201C11.9757 5.042 12.0307 5.05325 12.0819 5.07506C12.1331 5.09687 12.1793 5.1288 12.2178 5.16892C12.2563 5.20905 12.2863 5.25654 12.306 5.30855C12.3257 5.36056 12.3347 5.41602 12.3324 5.47159Z" fill="white"/>
<defs>
<linearGradient id="paint0_linear_2428_1024" x1="7.09376" y1="0.268258" x2="15.8204" y2="24.2446" gradientUnits="userSpaceOnUse">
<stop offset="0.002" stop-color="#427FDB"/>
<stop offset="0.397" stop-color="#2668CB"/>
<stop offset="0.763" stop-color="#1358BF"/>
<stop offset="1" stop-color="#0C52BB"/>
</linearGradient>
</defs>
</svg>
