<svg width="36" height="36" viewBox="0 0 36 36" fill="none" xmlns="http://www.w3.org/2000/svg">
<path d="M11.7143 32.2632C11.7143 32.5829 11.4584 32.8421 11.1429 32.8421C10.8273 32.8421 10.5714 32.5829 10.5714 32.2632V21.8421C10.5714 21.5224 10.8273 21.2632 11.1429 21.2632C11.4584 21.2632 11.7143 21.5224 11.7143 21.8421V32.2632Z" fill="#000"/>
<path d="M7.14286 32.2632C7.14286 32.5829 6.887 32.8421 6.57143 32.8421C6.25586 32.8421 6 32.5829 6 32.2632V21.8421C6 21.5224 6.25586 21.2632 6.57143 21.2632C6.887 21.2632 7.14286 21.5224 7.14286 21.8421V32.2632Z" fill="#000"/>
<path fill-rule="evenodd" clip-rule="evenodd" d="M33.0513 20.1053L19.2154 9.32237C19.9886 8.8319 20.399 7.92221 20.2589 7.00884C20.1189 6.09575 19.4551 5.35483 18.5714 5.12557V3.31579H20.2857V1H15.7143V3.31579H17.4286V5.63158C17.4286 5.9513 17.6844 6.21053 18 6.21053C18.6311 6.21053 19.1429 6.72898 19.1429 7.36842C19.1429 8.00786 18.6311 8.52632 18 8.52632C17.3689 8.52632 16.8571 8.00786 16.8571 7.36842C16.8571 7.0487 16.6013 6.78947 16.2857 6.78947C15.9701 6.78947 15.7143 7.0487 15.7143 7.36842C15.7162 8.16278 16.1203 8.9006 16.7846 9.32237L2.94866 20.1053H2V34H34V20.1053H33.0513ZM31.1772 20.1053L18 9.83601L4.82282 20.1053H31.1772ZM6.57143 32.8421C6.887 32.8421 7.14286 32.5829 7.14286 32.2632V21.8421C7.14286 21.5224 6.887 21.2632 6.57143 21.2632C6.25586 21.2632 6 21.5224 6 21.8421V32.2632C6 32.5829 6.25586 32.8421 6.57143 32.8421ZM11.1429 32.8421C11.4584 32.8421 11.7143 32.5829 11.7143 32.2632V21.8421C11.7143 21.5224 11.4584 21.2632 11.1429 21.2632C10.8273 21.2632 10.5714 21.5224 10.5714 21.8421V32.2632C10.5714 32.5829 10.8273 32.8421 11.1429 32.8421ZM15.7143 32.8421C16.0299 32.8421 16.2857 32.5829 16.2857 32.2632V21.8421C16.2857 21.5224 16.0299 21.2632 15.7143 21.2632C15.3987 21.2632 15.1429 21.5224 15.1429 21.8421V32.2632C15.1429 32.5829 15.3987 32.8421 15.7143 32.8421ZM20.2857 32.8421C20.6013 32.8421 20.8571 32.5829 20.8571 32.2632V21.8421C20.8571 21.5224 20.6013 21.2632 20.2857 21.2632C19.9701 21.2632 19.7143 21.5224 19.7143 21.8421V32.2632C19.7143 32.5829 19.9701 32.8421 20.2857 32.8421ZM24.8571 32.8421C25.1727 32.8421 25.4286 32.5829 25.4286 32.2632V21.8421C25.4286 21.5224 25.1727 21.2632 24.8571 21.2632C24.5416 21.2632 24.2857 21.5224 24.2857 21.8421V32.2632C24.2857 32.5829 24.5416 32.8421 24.8571 32.8421ZM29.4286 32.8421C29.7441 32.8421 30 32.5829 30 32.2632V21.8421C30 21.5224 29.7441 21.2632 29.4286 21.2632C29.113 21.2632 28.8571 21.5224 28.8571 21.8421V32.2632C28.8571 32.5829 29.113 32.8421 29.4286 32.8421Z" fill="#000"/>
<path d="M16.2857 32.2632C16.2857 32.5829 16.0299 32.8421 15.7143 32.8421C15.3987 32.8421 15.1429 32.5829 15.1429 32.2632V21.8421C15.1429 21.5224 15.3987 21.2632 15.7143 21.2632C16.0299 21.2632 16.2857 21.5224 16.2857 21.8421V32.2632Z" fill="#000"/>
<path d="M20.8571 32.2632C20.8571 32.5829 20.6013 32.8421 20.2857 32.8421C19.9701 32.8421 19.7143 32.5829 19.7143 32.2632V21.8421C19.7143 21.5224 19.9701 21.2632 20.2857 21.2632C20.6013 21.2632 20.8571 21.5224 20.8571 21.8421V32.2632Z" fill="#000"/>
<path d="M25.4286 32.2632C25.4286 32.5829 25.1727 32.8421 24.8571 32.8421C24.5416 32.8421 24.2857 32.5829 24.2857 32.2632V21.8421C24.2857 21.5224 24.5416 21.2632 24.8571 21.2632C25.1727 21.2632 25.4286 21.5224 25.4286 21.8421V32.2632Z" fill="#000"/>
<path d="M30 32.2632C30 32.5829 29.7441 32.8421 29.4286 32.8421C29.113 32.8421 28.8571 32.5829 28.8571 32.2632V21.8421C28.8571 21.5224 29.113 21.2632 29.4286 21.2632C29.7441 21.2632 30 21.5224 30 21.8421V32.2632Z" fill="#000"/>
</svg>
