<svg width="61" height="40" viewBox="0 0 61 40" fill="none" xmlns="http://www.w3.org/2000/svg">
<path d="M19.8466 7.2735L14.2852 35.8347L13.5625 39.5737L50.6386 39.4009C52.3039 39.3852 53.7807 37.9084 54.3148 35.7247L60.8974 8.76597C61.3058 7.10068 60.4104 5.37256 59.1535 5.37256L21.6218 5.41969C20.7892 5.38827 20.0508 6.15807 19.8466 7.2735Z" fill="#E9E9E9"/>
<path d="M47.0917 33.9026L43.1641 2.26227C43.007 0.958324 41.9702 0 40.7448 0L32.1356 0.0314199C31.4915 0.0314199 30.8945 0.298494 30.4389 0.785511L26.3542 5.13724L2.41185 5.26292C0.950799 5.26292 -0.180336 6.66113 0.0238969 8.21644L3.66867 37.4689C3.82577 38.7571 4.86264 39.7311 6.07233 39.7311L47.7987 39.6526C52.4489 39.7468 52.8888 38.3801 52.8888 38.3801C47.563 39.5269 47.0917 33.9026 47.0917 33.9026Z" fill="#F3F3F3"/>
<g opacity="0.5">
<path d="M29.0859 27.5712L27.6877 29.0794L16.8477 19.3391L18.2459 17.8152L29.0859 27.5712Z" fill="#C5C5C5"/>
<path d="M27.0922 17.4854L28.6475 18.8836L18.8444 29.4251L17.2891 28.0269L27.0922 17.4854Z" fill="#C5C5C5"/>
</g>
</svg>
