<svg width="22" height="22" viewBox="0 0 22 22" fill="none" xmlns="http://www.w3.org/2000/svg">
<g opacity="0.3">
<path d="M11.0003 3.6665C3.66699 3.6665 0.916992 10.9998 0.916992 10.9998C0.916992 10.9998 3.66699 18.3332 11.0003 18.3332C18.3337 18.3332 21.0837 10.9998 21.0837 10.9998C21.0837 10.9998 18.3337 3.6665 11.0003 3.6665ZM11.0003 5.49984C15.8367 5.49984 18.2829 9.41134 19.0749 10.9963C18.282 12.5702 15.8174 16.4998 11.0003 16.4998C6.16399 16.4998 3.71778 12.5883 2.92578 11.0034C3.71961 9.4295 6.18324 5.49984 11.0003 5.49984ZM11.0003 7.33317C8.97541 7.33317 7.33366 8.97492 7.33366 10.9998C7.33366 13.0248 8.97541 14.6665 11.0003 14.6665C13.0252 14.6665 14.667 13.0248 14.667 10.9998C14.667 8.97492 13.0252 7.33317 11.0003 7.33317ZM11.0003 9.1665C12.0132 9.1665 12.8337 9.98692 12.8337 10.9998C12.8337 12.0128 12.0132 12.8332 11.0003 12.8332C9.98741 12.8332 9.16699 12.0128 9.16699 10.9998C9.16699 9.98692 9.98741 9.1665 11.0003 9.1665Z" fill="#373737"/>
</g>
</svg>
