<svg width="22" height="22" viewBox="0 0 22 22" fill="none" xmlns="http://www.w3.org/2000/svg">
<path d="M7.5625 2.75C7.18437 2.75 6.875 3.05937 6.875 3.4375C6.875 3.81562 7.18437 4.125 7.5625 4.125H8.9375C9.31562 4.125 9.625 3.81562 9.625 3.4375C9.625 3.05937 9.31562 2.75 8.9375 2.75H7.5625Z" fill="#373737"/>
<path d="M13.0625 4.8125C13.4406 4.8125 13.75 4.50312 13.75 4.125V2.75C13.75 1.61563 12.8219 0.6875 11.6875 0.6875H4.8125C3.67813 0.6875 2.75 1.61563 2.75 2.75V19.25C2.75 20.3844 3.67813 21.3125 4.8125 21.3125H11.6875C12.8219 21.3125 13.75 20.3844 13.75 19.25V16.5C13.75 16.1219 13.4406 15.8125 13.0625 15.8125C12.6844 15.8125 12.375 16.1219 12.375 16.5V17.1875H4.125V2.75C4.125 2.37188 4.43438 2.0625 4.8125 2.0625H11.6875C12.0656 2.0625 12.375 2.37188 12.375 2.75V4.125C12.375 4.50312 12.6844 4.8125 13.0625 4.8125ZM12.375 18.5625V19.25C12.375 19.6281 12.0656 19.9375 11.6875 19.9375H4.8125C4.43438 19.9375 4.125 19.6281 4.125 19.25V18.5625H12.375Z" fill="#373737"/>
<path d="M17.875 6.1875H7.5625C6.80625 6.1875 6.1875 6.80625 6.1875 7.5625V13.0625C6.1875 13.8187 6.80625 14.4375 7.5625 14.4375H17.875C18.6313 14.4375 19.25 13.8187 19.25 13.0625V7.5625C19.25 6.80625 18.6313 6.1875 17.875 6.1875ZM9.28125 8.25H9.625C10.0031 8.25 10.3125 8.55938 10.3125 8.9375C10.3125 9.31562 10.0031 9.625 9.625 9.625H9.28125C8.90313 9.625 8.59375 9.31562 8.59375 8.9375C8.59375 8.55938 8.90313 8.25 9.28125 8.25ZM16.1562 12.375H9.28125C8.90313 12.375 8.59375 12.0656 8.59375 11.6875C8.59375 11.3094 8.90313 11 9.28125 11H16.1562C16.5344 11 16.8438 11.3094 16.8438 11.6875C16.8438 12.0656 16.5344 12.375 16.1562 12.375ZM16.1562 9.625H12.0312C11.6531 9.625 11.3438 9.31562 11.3438 8.9375C11.3438 8.55938 11.6531 8.25 12.0312 8.25H16.1562C16.5344 8.25 16.8438 8.55938 16.8438 8.9375C16.8438 9.31562 16.5344 9.625 16.1562 9.625Z" fill="#8235FF"/>
</svg>
