<svg width="24" height="30" viewBox="0 0 24 30" fill="none" xmlns="http://www.w3.org/2000/svg">
<path fill-rule="evenodd" clip-rule="evenodd" d="M7.5 12.8972L11.5556 3.42056L12.1667 5.60748L13.6667 4.99066L12.1111 0L7.44444 2.24299L8.05556 3.75701L10.0556 2.74766L5.66667 12.8972H7.5ZM3.33333 22.5981L5.83333 16.8224H4L1.77778 21.9813L3.33333 22.5981ZM15.5556 16.7664L18.6667 27.028L16.7778 25.7944L16 27.2523L20.3889 30L22.5 25.2336L21.0556 24.4486L20.1667 26.5234L17.2222 16.7103H15.5556V16.7664ZM0 15.7009H20.6667L18.9444 17.1589L20.1111 18.3364L24 14.9159L20.1111 11.4953L18.9444 12.6729L20.6667 14.1308H0V15.7009ZM12.6111 7.17757L14.3333 12.9533H16.0556L14.1667 6.6729L12.6111 7.17757Z" fill="#F23F34"/>
</svg>
