<svg width="18" height="18" viewBox="0 0 18 18" fill="none" xmlns="http://www.w3.org/2000/svg">
<g clip-path="url(#clip0_2275_245)">
<path d="M17.0826 0.112305H5.89081C5.55309 0.112305 5.2793 0.386102 5.2793 0.723814V12.1389C5.2793 12.4766 5.55309 12.7504 5.89081 12.7504H17.0826C17.4203 12.7504 17.6941 12.4766 17.6941 12.1389V0.723849C17.6941 0.386102 17.4203 0.112305 17.0826 0.112305Z" fill="#46D981"/>
<path d="M17.0828 14.003H3.75234V3.35379C3.75234 2.84718 3.34168 2.43652 2.83508 2.43652H0.917264C0.410661 2.43652 0 2.84718 0 3.35379C0 3.86039 0.410661 4.27105 0.917264 4.27105H1.91778V14.9203C1.91778 15.4269 2.32844 15.8375 2.83504 15.8375H3.46406C3.45158 15.9226 3.44486 16.0096 3.44486 16.0981C3.44486 17.0848 4.24759 17.8876 5.23428 17.8876C6.22095 17.8876 7.02371 17.0848 7.02371 16.0981C7.02371 16.0096 7.01699 15.9226 7.00451 15.8375H12.6369C12.6244 15.9226 12.6177 16.0096 12.6177 16.0981C12.6177 17.0848 13.4204 17.8876 14.4071 17.8876C15.3938 17.8876 16.1965 17.0848 16.1965 16.0981C16.1965 16.0096 16.1898 15.9226 16.1773 15.8375H17.0827C17.5893 15.8375 18 15.4268 18 14.9203C18 14.4137 17.5894 14.003 17.0828 14.003ZM5.23432 16.6646C4.92203 16.6646 4.66795 16.4105 4.66795 16.0982C4.66795 15.7859 4.92203 15.5318 5.23432 15.5318C5.54661 15.5318 5.80069 15.7859 5.80069 16.0982C5.80069 16.4105 5.54661 16.6646 5.23432 16.6646ZM14.4071 16.6646C14.0948 16.6646 13.8408 16.4105 13.8408 16.0982C13.8408 15.7859 14.0948 15.5318 14.4071 15.5318C14.7194 15.5318 14.9735 15.7859 14.9735 16.0982C14.9735 16.4105 14.7194 16.6646 14.4071 16.6646Z" fill="#373737"/>
</g>
<defs>
<clipPath id="clip0_2275_245">
<rect width="18" height="18" fill="white"/>
</clipPath>
</defs>
</svg>
