<svg width="30" height="30" viewBox="0 0 30 30" fill="none" xmlns="http://www.w3.org/2000/svg">
<path d="M14.9647 25C12.4083 25 10.1803 24.1614 8.28065 22.4841C6.38103 20.8069 5.28748 18.7043 5 16.1765H6.80723C7.10534 18.2082 8.02298 19.8926 9.56015 21.2297C11.0971 22.5668 12.8986 23.2353 14.9647 23.2353C17.2669 23.2353 19.2199 22.4363 20.8236 20.8382C22.4272 19.2402 23.2291 17.2941 23.2291 15C23.2291 12.7059 22.4272 10.7598 20.8236 9.16176C19.2199 7.56373 17.2669 6.76471 14.9647 6.76471C13.6751 6.76471 12.4665 7.0502 11.339 7.62118C10.2114 8.19196 9.2403 8.97735 8.42586 9.97735H11.5138V11.7421H5.51977V5.76912H7.2907V8.55647C8.24877 7.4298 9.39614 6.55539 10.7328 5.93323C12.0693 5.31108 13.4799 5 14.9647 5C16.3573 5 17.6621 5.26245 18.8791 5.78735C20.0959 6.31226 21.1569 7.02569 22.062 7.92765C22.9672 8.82961 23.6831 9.88696 24.2099 11.0997C24.7366 12.3123 25 13.6124 25 15C25 16.3876 24.7366 17.6877 24.2099 18.9003C23.6831 20.113 22.9672 21.1704 22.062 22.0724C21.1569 22.9743 20.0959 23.6877 18.8791 24.2126C17.6621 24.7375 16.3573 25 14.9647 25ZM18.509 19.7376L14.1135 15.3574V9.11765H15.8841V14.6426L19.753 18.4976L18.509 19.7376Z" fill="#373737"/>
</svg>
