<svg width="30" height="30" viewBox="0 0 30 30" fill="none" xmlns="http://www.w3.org/2000/svg">
<path d="M15 26V24.3242H22.8732C22.9789 24.3242 23.0657 24.292 23.1335 24.2276C23.2014 24.1632 23.2353 24.0808 23.2353 23.9804V22.9922H19.0724V15.0859H23.2353V13.4961C23.2353 11.3362 22.4314 9.49285 20.8235 7.96603C19.2157 6.4392 17.2745 5.67579 15 5.67579C12.7255 5.67579 10.7843 6.4392 9.17647 7.96603C7.56863 9.49285 6.76471 11.3362 6.76471 13.4961V15.0859H10.9276V22.9922H7.12676C6.53245 22.9922 6.02941 22.7967 5.61765 22.4057C5.20588 22.0147 5 21.537 5 20.9726V13.4961C5 12.1899 5.26245 10.961 5.78735 9.80939C6.31226 8.65775 7.02873 7.65089 7.93676 6.78879C8.84461 5.9265 9.9049 5.24613 11.1176 4.74768C12.3304 4.24923 13.6245 4 15 4C16.3755 4 17.6696 4.24923 18.8824 4.74768C20.0951 5.24613 21.1554 5.9265 22.0632 6.78879C22.9713 7.65089 23.6877 8.65775 24.2126 9.80939C24.7375 10.961 25 12.1899 25 13.4961V23.9804C25 24.5448 24.7941 25.0225 24.3824 25.4135C23.9706 25.8045 23.4675 26 22.8732 26H15ZM7.12676 21.3165H9.16294V16.7617H6.76471V20.9726C6.76471 21.073 6.79863 21.1554 6.86647 21.2198C6.93431 21.2842 7.02108 21.3165 7.12676 21.3165ZM20.8371 21.3165H23.2353V16.7617H20.8371V21.3165ZM7.12676 16.7617H6.76471H9.16294H7.12676Z" fill="#373737"/>
</svg>
