<svg width="18" height="18" viewBox="0 0 18 18" fill="none" xmlns="http://www.w3.org/2000/svg">
<path d="M9.00024 0.359863C5.82492 0.359863 3.24023 2.94455 3.24023 6.11986C3.24023 11.2006 8.50664 17.2602 8.73024 17.5161C8.79914 17.5949 8.89617 17.6399 9.00024 17.6399C9.11133 17.6328 9.20133 17.5949 9.27024 17.5161C9.49383 17.256 14.7602 11.0924 14.7602 6.11986C14.7602 2.94455 12.1755 0.359863 9.00024 0.359863ZM9.00024 4.31986C10.1927 4.31986 11.1602 5.28736 11.1602 6.47986C11.1602 7.67236 10.1927 8.63986 9.00024 8.63986C7.80773 8.63986 6.84023 7.67236 6.84023 6.47986C6.84023 5.28736 7.80773 4.31986 9.00024 4.31986Z" fill="#C4C4C4"/>
</svg>
