<svg width="30" height="30" viewBox="0 0 30 30" fill="none" xmlns="http://www.w3.org/2000/svg">
<g clip-path="url(#clip0_2487_9487)">
<circle cx="15" cy="15" r="15" fill="#F2F2F2"/>
<path d="M15.2031 6C14.0986 6 13.2031 6.84836 13.2031 7.89472C13.2031 8.94109 14.0986 9.78945 15.2031 9.78945C16.3076 9.78945 17.2031 8.94109 17.2031 7.89472C17.2031 6.84836 16.3076 6 15.2031 6Z" fill="#373737"/>
<path opacity="0.5" d="M7.50001 13.8604C6.6715 13.8604 6 14.4965 6 15.2814C6 16.0663 6.6715 16.7024 7.50001 16.7024C8.32851 16.7024 9.00001 16.0663 9.00001 15.2814C9.00001 14.4965 8.32851 13.8604 7.50001 13.8604Z" fill="#373737"/>
<path opacity="0.4" d="M9.74119 19.0273C10.5707 19.0273 11.2422 19.664 11.2422 20.4484C11.2422 21.2328 10.5707 21.8694 9.74119 21.8694C8.91419 21.8694 8.24219 21.2328 8.24219 20.4484C8.24219 19.664 8.91469 19.0273 9.74119 19.0273Z" fill="#373737"/>
<path opacity="0.3" d="M15.2032 21.1582C16.0307 21.1582 16.7027 21.7948 16.7027 22.5802C16.7027 23.3641 16.0307 24.0003 15.2032 24.0003C14.3732 24.0003 13.7021 23.3641 13.7021 22.5802C13.7021 21.7948 14.3732 21.1582 15.2032 21.1582Z" fill="#373737"/>
<path opacity="0.1" d="M23 16.4719C23.5523 16.4719 24 16.0477 24 15.5245C24 15.0013 23.5523 14.5771 23 14.5771C22.4477 14.5771 22 15.0013 22 15.5245C22 16.0477 22.4477 16.4719 23 16.4719Z" fill="#373737"/>
<path opacity="0.05" d="M20.6611 9.40723C21.0751 9.40723 21.4121 9.72459 21.4121 10.1177C21.4121 10.5081 21.0751 10.8283 20.6611 10.8283C20.2471 10.8283 19.9121 10.5081 19.9121 10.1177C19.9121 9.72459 20.2471 9.40723 20.6611 9.40723Z" fill="#373737"/>
<path opacity="0.2" d="M20.6621 21.6331C21.3525 21.6331 21.9121 21.1029 21.9121 20.4489C21.9121 19.7948 21.3525 19.2646 20.6621 19.2646C19.9718 19.2646 19.4121 19.7948 19.4121 20.4489C19.4121 21.1029 19.9718 21.6331 20.6621 21.6331Z" fill="#373737"/>
<path opacity="0.7" d="M9.74119 8.45898C10.7087 8.45898 11.4922 9.20029 11.4922 10.1169C11.4922 11.032 10.7087 11.7748 9.74119 11.7748C8.77619 11.7748 7.99219 11.032 7.99219 10.1169C7.99219 9.20077 8.77669 8.45898 9.74119 8.45898Z" fill="#373737"/>
</g>
<defs>
<clipPath id="clip0_2487_9487">
<rect width="30" height="30" fill="white"/>
</clipPath>
</defs>
</svg>
