<svg width="30" height="30" viewBox="0 0 30 30" fill="none" xmlns="http://www.w3.org/2000/svg">
<path d="M3.60379 13.6002V15.4674H5.26808V13.6002H3.60379Z" fill="#8235FF"/>
<path d="M3.60379 15.4674V13.6002H2.80133L1.0001 15.4674H3.60379Z" fill="#8235FF"/>
<path d="M9.32151 15.4674L11.1227 13.6002H5.26808V15.4674H9.32151Z" fill="#8235FF"/>
<path d="M6.12634 10.7778V12.6449H7.79062V10.7778H6.12634Z" fill="#8235FF"/>
<path d="M6.12634 12.6449V10.7778H5.32388L3.52265 12.6449H6.12634Z" fill="#8235FF"/>
<path d="M11.8441 12.6449L13.6453 10.7778H7.79062V12.6449H11.8441Z" fill="#8235FF"/>
<path fill-rule="evenodd" clip-rule="evenodd" d="M10.3492 24C9.48308 24 8.74775 23.6918 8.14325 23.0754C7.53874 22.4589 7.23649 21.7105 7.23649 20.8301H5.3589V16.4466H7.02318V19.1366H7.82537C8.06151 18.7183 8.4025 18.3677 8.84835 18.0847C9.29438 17.8017 9.79551 17.6602 10.3517 17.6602C10.8936 17.6602 11.391 17.7999 11.8441 18.0793C12.2971 18.3587 12.6417 18.7112 12.8779 19.1366H20.8067V8.69348H7.36436C7.27911 8.69348 7.20089 8.7297 7.1297 8.80214C7.05869 8.8744 7.02318 8.95399 7.02318 9.04093V9.59568H5.3589V9.04093C5.3589 8.4706 5.55307 7.98786 5.9414 7.59272C6.32973 7.19757 6.80405 7 7.36436 7H22.471V11.2989H25.4154L29 16.184V20.8301H26.9945C26.9945 21.7105 26.6914 22.4589 26.085 23.0754C25.4788 23.6918 24.7428 24 23.8768 24C23.0108 24 22.2755 23.6918 21.6708 23.0754C21.0663 22.4589 20.764 21.7105 20.764 20.8301H13.4667C13.4667 21.713 13.1636 22.4619 12.5575 23.0771C11.9513 23.6924 11.2152 24 10.3492 24ZM11.3822 21.8786C11.1021 22.1639 10.7586 22.3065 10.3517 22.3065C9.94492 22.3065 9.60134 22.1639 9.321 21.8786C9.04085 21.5936 8.90077 21.244 8.90077 20.8301C8.90077 20.4161 9.04085 20.0665 9.321 19.7813C9.60134 19.4962 9.94492 19.3537 10.3517 19.3537C10.7586 19.3537 11.1021 19.4962 11.3822 19.7813C11.6624 20.0665 11.8024 20.4161 11.8024 20.8301C11.8024 21.244 11.6624 21.5936 11.3822 21.8786ZM24.9097 21.8786C24.6296 22.1639 24.2861 22.3065 23.8793 22.3065C23.4725 22.3065 23.1289 22.1639 22.8485 21.8786C22.5684 21.5936 22.4283 21.244 22.4283 20.8301C22.4283 20.4161 22.5684 20.0665 22.8485 19.7813C23.1289 19.4962 23.4725 19.3537 23.8793 19.3537C24.2861 19.3537 24.6296 19.4962 24.9097 19.7813C25.1901 20.0665 25.3303 20.4161 25.3303 20.8301C25.3303 21.244 25.1901 21.5936 24.9097 21.8786ZM27.4425 16.8786H22.471V12.9924H24.5619L27.4425 16.8786Z" fill="#8235FF"/>
</svg>
