<svg width="18" height="18" viewBox="0 0 18 18" fill="none" xmlns="http://www.w3.org/2000/svg">
<path d="M9 14.9252L5.13132 11.0565L6.24706 9.94076L8.20588 11.8996V7.18782H9.79412V11.8996L11.7529 9.94076L12.8687 11.0565L9 14.9252ZM1.58824 4.6628V16.0859C1.58824 16.181 1.61876 16.2591 1.67982 16.3202C1.74088 16.3812 1.81897 16.4118 1.91409 16.4118H16.0859C16.181 16.4118 16.2591 16.3812 16.3202 16.3202C16.3812 16.2591 16.4118 16.181 16.4118 16.0859V4.6628H1.58824ZM1.99562 18C1.46744 18 1.00279 17.7994 0.601676 17.3983C0.200559 16.9972 0 16.5326 0 16.0044V3.71197C0 3.48538 0.0363528 3.26921 0.109059 3.06344C0.181588 2.85785 0.290471 2.66815 0.435706 2.49432L1.92229 0.696441C2.09594 0.469676 2.31309 0.296911 2.57374 0.178147C2.83438 0.0593818 3.10994 0 3.40041 0H14.5792C14.8697 0 15.1469 0.0593818 15.4109 0.178147C15.6749 0.296911 15.8938 0.469676 16.0676 0.696441L17.5643 2.51471C17.7095 2.68853 17.8184 2.87991 17.8909 3.08885C17.9636 3.29797 18 3.51591 18 3.74268V16.0044C18 16.5326 17.7994 16.9972 17.3983 17.3983C16.9972 17.7994 16.5326 18 16.0044 18H1.99562ZM2.00171 3.07482H15.9882L14.8336 1.70021C14.7997 1.66632 14.7607 1.63915 14.7166 1.61868C14.6725 1.59838 14.6267 1.58824 14.5792 1.58824H3.41074C3.36327 1.58824 3.31738 1.59838 3.27309 1.61868C3.22897 1.63915 3.18997 1.66632 3.15609 1.70021L2.00171 3.07482Z" fill="#8235FF"/>
</svg>
