<svg width="18" height="18" viewBox="0 0 18 18" fill="none" xmlns="http://www.w3.org/2000/svg">
<g clip-path="url(#clip0_2270_5593)">
<path opacity="0.4" d="M17.0826 0.112549H5.89081C5.55309 0.112549 5.2793 0.386346 5.2793 0.724058V12.1391C5.2793 12.4769 5.55309 12.7507 5.89081 12.7507H17.0826C17.4203 12.7507 17.6941 12.4769 17.6941 12.1392V0.724093C17.6941 0.386346 17.4203 0.112549 17.0826 0.112549Z" fill="#C4C4C4"/>
<path d="M17.0828 14.0029H3.75234V3.35366C3.75234 2.84706 3.34168 2.4364 2.83508 2.4364H0.917264C0.410661 2.4364 0 2.84706 0 3.35366C0 3.86027 0.410661 4.27093 0.917264 4.27093H1.91778V14.9201C1.91778 15.4267 2.32844 15.8374 2.83504 15.8374H3.46406C3.45158 15.9225 3.44486 16.0095 3.44486 16.098C3.44486 17.0847 4.24759 17.8874 5.23428 17.8874C6.22095 17.8874 7.02371 17.0847 7.02371 16.098C7.02371 16.0095 7.01699 15.9225 7.00451 15.8374H12.6369C12.6244 15.9225 12.6177 16.0095 12.6177 16.098C12.6177 17.0847 13.4204 17.8874 14.4071 17.8874C15.3938 17.8874 16.1965 17.0847 16.1965 16.098C16.1965 16.0095 16.1898 15.9225 16.1773 15.8374H17.0827C17.5893 15.8374 18 15.4267 18 14.9201C18 14.4136 17.5894 14.0029 17.0828 14.0029ZM5.23432 16.6644C4.92203 16.6644 4.66795 16.4104 4.66795 16.0981C4.66795 15.7858 4.92203 15.5317 5.23432 15.5317C5.54661 15.5317 5.80069 15.7858 5.80069 16.0981C5.80069 16.4104 5.54661 16.6644 5.23432 16.6644ZM14.4071 16.6644C14.0948 16.6644 13.8408 16.4104 13.8408 16.0981C13.8408 15.7858 14.0948 15.5317 14.4071 15.5317C14.7194 15.5317 14.9735 15.7858 14.9735 16.0981C14.9735 16.4104 14.7194 16.6644 14.4071 16.6644Z" fill="#C4C4C4"/>
</g>
<defs>
<clipPath id="clip0_2270_5593">
<rect width="18" height="18" fill="white"/>
</clipPath>
</defs>
</svg>
