<svg width="22" height="22" viewBox="0 0 22 22" fill="none" xmlns="http://www.w3.org/2000/svg">
<g opacity="0.3">
<path d="M9.23977 1.31982C5.10445 1.31982 1.75977 4.66451 1.75977 8.79982C1.75977 12.9351 5.10445 16.2798 9.23977 16.2798C10.7162 16.2798 12.0826 15.8467 13.241 15.1111L18.6448 20.5148L20.5148 18.6448L15.1798 13.3236C16.1388 12.0654 16.7198 10.5065 16.7198 8.79982C16.7198 4.66451 13.3751 1.31982 9.23977 1.31982ZM9.23977 3.07982C12.4074 3.07982 14.9598 5.63217 14.9598 8.79982C14.9598 11.9675 12.4074 14.5198 9.23977 14.5198C6.07211 14.5198 3.51977 11.9675 3.51977 8.79982C3.51977 5.63217 6.07211 3.07982 9.23977 3.07982Z" fill="#373737"/>
</g>
</svg>
