<svg width="48" height="56" viewBox="0 0 48 56" fill="none" xmlns="http://www.w3.org/2000/svg">
<path fill-rule="evenodd" clip-rule="evenodd" d="M20.1315 54.9305C22.469 56.3519 25.3477 56.3568 27.6894 54.9432L44.1895 44.983C46.5463 43.5604 48 40.918 48 38.0568L48 17.9652C48 15.1068 46.5491 12.4665 44.1959 11.0428L27.6965 1.06064C25.3512 -0.358309 22.4656 -0.353212 20.1248 1.07402L3.78208 11.0384C1.44131 12.4656 -6.59976e-07 15.0985 -7.84502e-07 17.9473L-1.6645e-06 38.0793C-1.78917e-06 40.9314 1.44457 43.5668 3.78955 44.9928L20.1315 54.9305Z" fill="#F23F34"/>
<path d="M24.0003 17.1666C18.0171 17.1666 13.167 22.0167 13.167 28C13.167 33.9832 18.0171 38.8333 24.0003 38.8333C29.9836 38.8333 34.8337 33.9832 34.8337 28C34.8337 22.0167 29.9836 17.1666 24.0003 17.1666ZM24.0003 20.1458C25.9449 20.1458 27.5212 21.722 27.5212 23.6666C27.5212 25.6112 25.9449 27.1875 24.0003 27.1875C22.0557 27.1875 20.4795 25.6112 20.4795 23.6666C20.4795 21.722 22.0557 20.1458 24.0003 20.1458ZM24.0003 36.6666C21.3592 36.6666 18.9942 35.4847 17.405 33.6203C16.9922 33.136 17.0843 32.4091 17.5924 32.0267C19.2358 30.7906 22.2302 30.1666 24.0003 30.1666C25.7705 30.1666 28.7648 30.7906 30.4093 32.0267C30.9174 32.4091 31.0095 33.1371 30.5967 33.6203C29.0064 35.4847 26.6415 36.6666 24.0003 36.6666Z" fill="white"/>
</svg>
