<svg width="48" height="56" viewBox="0 0 48 56" fill="none" xmlns="http://www.w3.org/2000/svg">
<path fill-rule="evenodd" clip-rule="evenodd" d="M20.1315 54.9305C22.469 56.3519 25.3477 56.3568 27.6894 54.9432L44.1895 44.983C46.5463 43.5604 48 40.918 48 38.0568L48 17.9652C48 15.1068 46.5491 12.4665 44.1959 11.0428L27.6965 1.06064C25.3512 -0.358309 22.4656 -0.353212 20.1248 1.07402L3.78208 11.0384C1.44131 12.4656 -6.59976e-07 15.0985 -7.84502e-07 17.9473L-1.6645e-06 38.0793C-1.78917e-06 40.9314 1.44457 43.5668 3.78955 44.9928L20.1315 54.9305Z" fill="#F23F34"/>
<path d="M23.1203 16.4745L15.537 19.8447C14.7538 20.1925 14.25 20.9681 14.25 21.8251V26.9167C14.25 35.3992 21.2256 39.3599 24 39.9167C26.7744 39.3599 33.75 35.3992 33.75 26.9167V21.8251C33.75 20.9692 33.2463 20.1925 32.463 19.8447L24.8797 16.4745C24.3196 16.2253 23.6804 16.2253 23.1203 16.4745ZM22.1508 32.016L19.1499 29.0151C18.7274 28.5926 18.7274 27.9058 19.1499 27.4833C19.5724 27.0608 20.2593 27.0608 20.6818 27.4833L22.9167 29.7182L28.4254 24.2095C28.8479 23.787 29.5348 23.787 29.9573 24.2095C30.3798 24.632 30.3798 25.3188 29.9573 25.7413L23.6826 32.016C23.2601 32.4385 22.5733 32.4385 22.1508 32.016Z" fill="white"/>
</svg>
