<svg width="48" height="56" viewBox="0 0 48 56" fill="none" xmlns="http://www.w3.org/2000/svg">
<path fill-rule="evenodd" clip-rule="evenodd" d="M20.1315 54.9305C22.469 56.3519 25.3477 56.3568 27.6894 54.9432L44.1895 44.983C46.5463 43.5604 48 40.918 48 38.0568L48 17.9652C48 15.1068 46.5491 12.4665 44.1959 11.0428L27.6965 1.06064C25.3512 -0.358309 22.4656 -0.353212 20.1248 1.07402L3.78208 11.0384C1.44131 12.4656 -6.59976e-07 15.0985 -7.84502e-07 17.9473L-1.6645e-06 38.0793C-1.78917e-06 40.9314 1.44457 43.5668 3.78955 44.9928L20.1315 54.9305Z" fill="#F23F34"/>
<path d="M31.8215 31.5209L29.0915 31.2067C28.4306 31.1309 27.7806 31.3584 27.3148 31.8242L25.3106 33.8284C23.7734 33.0484 22.3791 32.0311 21.1745 30.8254C19.9687 29.6207 18.9515 28.2264 18.1715 26.6892L20.1756 24.685C20.6415 24.2192 20.869 23.5692 20.7931 22.9084L20.479 20.1784C20.349 19.0842 19.4281 18.2609 18.3231 18.2609H16.449C15.2248 18.2609 14.2065 19.2792 14.2823 20.5034C14.5694 25.1281 16.5616 29.287 19.6372 32.3626C22.7128 35.4382 26.8717 37.4304 31.4965 37.7175C32.7206 37.7934 33.739 36.775 33.739 35.5509V33.6767C33.739 32.5717 32.9156 31.6509 31.8215 31.5209Z" fill="white"/>
</svg>
