<svg width="16" height="16" viewBox="0 0 16 16" fill="none" xmlns="http://www.w3.org/2000/svg">
<g opacity="0.3">
<path d="M12.8857 6.17872L13.699 5.36539C14.5437 4.52072 14.5437 3.14606 13.699 2.30106C13.29 1.89239 12.7463 1.66772 12.1667 1.66772C11.587 1.66772 11.043 1.89272 10.6343 2.30139L9.82133 3.11439L12.8857 6.17872ZM9.11433 3.82139L3.09133 9.84439C2.96299 9.97272 2.86532 10.1311 2.80866 10.3027L1.69199 13.6764C1.63233 13.8557 1.67932 14.0534 1.81299 14.1871C1.90866 14.2824 2.03599 14.3334 2.16666 14.3334C2.21932 14.3334 2.27232 14.3251 2.32399 14.3081L5.69666 13.1911C5.86899 13.1344 6.02766 13.0367 6.15599 12.9081L12.1787 6.88539L9.11433 3.82139Z" fill="black"/>
</g>
</svg>
