<svg width="40" height="40" viewBox="0 0 40 40" fill="none" xmlns="http://www.w3.org/2000/svg">
<path d="M0 20C0 8.954 8.952 0 20 0C31.044 0 40 8.954 40 20C40 31.046 31.044 40 20 40C8.952 40 0 31.046 0 20Z" fill="#FC3F1D"/>
<path d="M22.5604 11.3321H20.7124C17.3244 11.3321 15.5424 13.0481 15.5424 15.5781C15.5424 18.4381 16.7744 19.7781 19.3044 21.4961L21.3944 22.9041L15.3884 31.8781H10.9004L16.2904 23.8501C13.1904 21.6281 11.4504 19.4701 11.4504 15.8201C11.4504 11.2441 14.6404 8.12012 20.6904 8.12012H26.6964V31.8561H22.5604V11.3321Z" fill="white"/>
</svg>
