<svg width="36" height="36" viewBox="0 0 36 36" fill="none" xmlns="http://www.w3.org/2000/svg">
<g clip-path="url(#clip0_1899_18)">
<path d="M7.20042 5.08008C6.80386 5.08008 6.48042 5.40352 6.48042 5.80008V8.68008H3.60042C3.20386 8.68008 2.88042 9.00352 2.88042 9.40008V15.8801H10.0804V12.5726L11.3179 11.3576C11.4529 11.2226 11.5204 11.0313 11.5204 10.8401V9.40008C11.5204 9.00352 11.197 8.68008 10.8004 8.68008H7.92042V5.80008C7.92042 5.40352 7.59698 5.08008 7.20042 5.08008ZM27.3604 12.2801C26.4098 12.2801 25.7039 12.4798 25.1554 12.9326C24.8629 13.1773 24.6379 13.6076 24.3229 14.1926C23.6114 15.5116 22.6382 17.3201 20.8804 17.3201H2.16042C1.04948 17.3201 0.000420872 18.3523 0.000420872 19.4351V21.5501C0.000420872 22.5204 0.697921 23.9463 1.84542 25.1951C1.91011 25.1979 1.98323 25.1951 2.04792 25.1951C2.85511 25.1951 4.03636 24.9532 4.70292 24.4301C5.08261 24.1291 5.54667 23.9576 6.03042 23.9576C6.51136 23.9576 7.00073 24.132 7.38042 24.4301C8.0498 24.956 9.22823 25.1951 10.0354 25.1951C10.8426 25.1951 12.0014 24.9532 12.6679 24.4301C13.0476 24.1291 13.5314 23.9576 14.0179 23.9576C14.5017 23.9576 14.9685 24.132 15.3454 24.4301C16.0176 24.956 17.1932 25.1951 18.0004 25.1951C18.8076 25.1951 19.986 24.956 20.6554 24.4301C21.0351 24.132 21.4992 23.9576 21.9829 23.9576C22.4667 23.9576 22.956 24.132 23.3329 24.4301C24.0051 24.956 25.1582 25.1951 25.9654 25.1951C26.7726 25.1951 27.9539 24.956 28.6204 24.4301C29.0001 24.1291 29.4867 23.9576 29.9704 23.9576C30.4542 23.9576 30.921 24.132 31.2979 24.4301C31.3626 24.4807 31.4273 24.5201 31.5004 24.5651C34.026 21.5501 36.0004 17.2329 36.0004 14.0801C36.0004 12.5135 34.9401 12.2801 34.3129 12.2801H27.3604ZM28.5529 16.1276C29.0001 16.1276 29.0479 16.3976 29.0479 16.3976V16.9826C29.0479 16.9826 29.0957 17.2526 29.5204 17.2526C29.9451 17.2526 29.9929 16.9826 29.9929 16.9826V16.3976C29.9929 16.3976 30.0407 16.1276 30.4879 16.1276C30.9351 16.1276 30.9604 16.3976 30.9604 16.3976V17.3651C30.9604 18.026 30.3079 18.0401 30.3079 18.0401H28.8454C28.8454 18.0401 28.0804 18.0035 28.0804 17.3426V16.3976C28.0804 16.3976 28.1085 16.1276 28.5529 16.1276ZM6.03042 25.3976C5.87292 25.3976 5.7323 25.451 5.60292 25.5551C4.59323 26.3482 3.05198 26.6351 2.04792 26.6351C1.64855 26.6351 1.26605 26.6126 0.832921 26.5451C0.444796 26.486 0.0622959 26.7588 0.000420872 27.1526C-0.0614541 27.5463 0.214171 27.9035 0.607921 27.9626C1.11417 28.0413 1.57542 28.0751 2.04792 28.0751C3.19823 28.0751 4.78167 27.7798 6.03042 26.9951C7.27917 27.7798 8.88511 28.0751 10.0354 28.0751C11.1857 28.0751 12.7692 27.7798 14.0179 26.9951C15.2667 27.7798 16.8501 28.0751 18.0004 28.0751C19.1507 28.0751 20.7342 27.7798 21.9829 26.9951C23.2317 27.7798 24.8151 28.0751 25.9654 28.0751C27.1157 28.0751 28.7217 27.7798 29.9704 26.9951C31.2192 27.7798 32.8026 28.0751 33.9529 28.0751C34.5239 28.0751 35.0442 27.9991 35.5279 27.8276C35.902 27.6954 36.0876 27.2791 35.9554 26.9051C35.8232 26.531 35.407 26.3229 35.0329 26.4551C34.7067 26.5704 34.3579 26.6351 33.9529 26.6351C32.9489 26.6351 31.4048 26.3482 30.3979 25.5551C30.1364 25.3498 29.782 25.3498 29.5204 25.5551C28.5135 26.3482 26.9695 26.6351 25.9654 26.6351C24.9614 26.6351 23.4426 26.351 22.4329 25.5551C22.1742 25.3498 21.7917 25.3498 21.5329 25.5551C20.5232 26.3482 19.0045 26.6351 18.0004 26.6351C16.9964 26.6351 15.4551 26.351 14.4454 25.5551C14.1839 25.3498 13.8295 25.3498 13.5679 25.5551C12.561 26.3482 11.0395 26.6351 10.0354 26.6351C9.03136 26.6351 7.49011 26.351 6.48042 25.5551C6.35105 25.4538 6.18792 25.3976 6.03042 25.3976ZM5.94042 28.2776C5.81667 28.3001 5.69855 28.3535 5.60292 28.4351C4.6298 29.2029 3.02386 29.5151 2.04792 29.5151C1.59511 29.5151 1.20698 29.4813 0.832921 29.4251C0.568546 29.3604 0.292921 29.4504 0.115733 29.6557C-0.0614541 29.861 -0.106454 30.1507 -0.00239163 30.401C0.101671 30.6513 0.337921 30.8229 0.607921 30.8426C1.03261 30.9073 1.50792 30.9551 2.04792 30.9551C3.16448 30.9551 4.71417 30.6316 6.03042 29.7851C7.34667 30.6401 8.91323 30.9551 10.0354 30.9551C11.1492 30.9551 12.7045 30.6485 14.0179 29.8076C15.3314 30.6485 16.8867 30.9551 18.0004 30.9551C19.1142 30.9551 20.6695 30.6485 21.9829 29.8076C23.2964 30.6485 24.8517 30.9551 25.9654 30.9551C27.0876 30.9551 28.6542 30.6401 29.9704 29.7851C31.2867 30.6316 32.8364 30.9551 33.9529 30.9551C34.5745 30.9551 35.1004 30.8595 35.5279 30.7076C35.9076 30.5698 36.1045 30.1535 35.9667 29.7738C35.8289 29.3941 35.4126 29.1973 35.0329 29.3351C34.7489 29.4335 34.4198 29.5151 33.9529 29.5151C32.977 29.5151 31.371 29.2029 30.3979 28.4351C30.1392 28.2354 29.7792 28.2354 29.5204 28.4351C28.5473 29.2029 26.9414 29.5151 25.9654 29.5151C24.9895 29.5151 23.4089 29.2029 22.4329 28.4351C22.1685 28.2241 21.7973 28.2241 21.5329 28.4351C20.557 29.2029 18.9764 29.5151 18.0004 29.5151C17.0245 29.5151 15.4439 29.2029 14.4679 28.4351C14.2035 28.2241 13.8323 28.2241 13.5679 28.4351C12.5948 29.2029 11.0114 29.5151 10.0354 29.5151C9.05948 29.5151 7.45355 29.2029 6.48042 28.4351C6.34542 28.3282 6.17948 28.272 6.00792 28.2776C5.98542 28.2776 5.96292 28.2776 5.94042 28.2776Z" fill="#F23F34" style="fill:#F23F34;fill:color(display-p3 0.9490 0.2471 0.2039);fill-opacity:1;"/>
</g>
<defs>
<clipPath id="clip0_1899_18">
<rect width="36" height="36" fill="white" style="fill:white;fill:white;fill-opacity:1;"/>
</clipPath>
</defs>
</svg>
