<svg width="36" height="36" viewBox="0 0 36 36" fill="none" xmlns="http://www.w3.org/2000/svg">
<path d="M10.1253 33C9.93934 33 9.75259 32.9542 9.58159 32.8597C9.13534 32.613 8.91034 32.097 9.03484 31.602L11.6846 21H7.87534C7.52209 21 7.18984 20.8342 6.97684 20.5522C6.76459 20.2702 6.69634 19.905 6.79309 19.566L11.2931 3.816C11.4318 3.333 11.8728 3 12.3753 3H22.8753C23.2368 3 23.5766 3.174 23.7881 3.46725C23.9996 3.7605 24.0573 4.13775 23.9426 4.4805L21.4361 12H28.1253C28.5761 12 28.9833 12.2693 29.1603 12.684C29.3373 13.0988 29.2496 13.5788 28.9368 13.9035L10.9368 32.6535C10.7193 32.8807 10.4238 33 10.1253 33Z" fill="#F23F34" style="fill:#F23F34;fill:color(display-p3 0.9490 0.2471 0.2039);fill-opacity:1;"/>
</svg>
