<svg width="32" height="49" viewBox="0 0 32 49" fill="none" xmlns="http://www.w3.org/2000/svg">
<path d="M16.1707 0C6.70027 0 0.702604 6.59817 0.753248 15.9239C0.803892 25.2423 7.65527 38.9451 16.1707 48.2419C24.6861 38.9451 31.5375 25.2423 31.5881 15.9239C31.6388 6.59817 25.6483 0 16.1707 0ZM5.76699 15.3162C5.76699 9.57169 10.4262 4.91245 16.1707 4.91245C21.9151 4.91245 26.5744 9.57169 26.5744 15.3162C26.5744 21.0606 21.9151 25.7198 16.1707 25.7198C10.4262 25.7198 5.76699 21.0606 5.76699 15.3162Z" fill="#F23F34"/>
<path d="M26.5505 15.3163C26.5505 21.0608 21.8913 25.72 16.1468 25.72C10.4024 25.72 5.74316 21.0608 5.74316 15.3163C5.74316 9.57183 10.4024 4.9126 16.1468 4.9126C21.8913 4.9126 26.5505 9.57183 26.5505 15.3163Z" fill="white"/>
<path fill-rule="evenodd" clip-rule="evenodd" d="M13.7696 14.2848L15.958 9.21118L16.2878 10.382L17.0972 10.0518L16.2578 7.37988L13.7397 8.58073L14.0694 9.3913L15.1486 8.85092L12.7804 14.2848H13.7696ZM11.5213 19.4784L12.8703 16.3862H11.881L10.6819 19.1482L11.5213 19.4784ZM18.1164 16.3562L19.7952 21.8501L18.7759 21.1896L18.3562 21.9702L20.7245 23.4412L21.8636 20.8894L21.0842 20.4691L20.6046 21.5799L19.0157 16.3262H18.1164V16.3562ZM9.72266 15.7858H20.8744L19.945 16.5664L20.5746 17.1968L22.673 15.3655L20.5746 13.5342L19.945 14.1647L20.8744 14.9452H9.72266V15.7858ZM16.5276 11.2226L17.4569 14.3148H18.3862L17.367 10.9524L16.5276 11.2226Z" fill="#F23F34"/>
<path opacity="0.1" d="M16.1709 0V4.91245C21.9154 4.91245 26.5746 9.57169 26.5746 15.3161C26.5746 21.0606 21.9154 25.7198 16.1709 25.7198V48.2419C24.6863 38.9451 31.5377 25.2423 31.5883 15.9239C31.639 6.59817 25.6485 0 16.1709 0Z" fill="#373737"/>
</svg>
