<svg width="30" height="30" viewBox="0 0 30 30" fill="none" xmlns="http://www.w3.org/2000/svg">
<path d="M15 3.75C13.6739 3.75 12.4021 4.27678 11.4645 5.21447C10.5268 6.15215 10 7.42392 10 8.75C10 10.0761 10.5268 11.3479 11.4645 12.2855C12.4021 13.2232 13.6739 13.75 15 13.75C16.3261 13.75 17.5979 13.2232 18.5355 12.2855C19.4732 11.3479 20 10.0761 20 8.75C20 7.42392 19.4732 6.15215 18.5355 5.21447C17.5979 4.27678 16.3261 3.75 15 3.75ZM15 17.5C11.245 17.5 3.75 19.385 3.75 23.125V25C3.75 25.69 4.31 26.25 5 26.25H25C25.69 26.25 26.25 25.69 26.25 25V23.125C26.25 19.385 18.755 17.5 15 17.5Z" fill="white"/>
</svg>
