<svg width="48" height="48" viewBox="0 0 48 48" fill="none" xmlns="http://www.w3.org/2000/svg">
<rect width="48" height="48" fill="#F23F34"/>
<path d="M27.4238 19.1013C27.2906 18.9662 27.075 18.9662 26.9418 19.1013L24.0009 22.0843L21.0602 19.1013C20.927 18.9662 20.7113 18.9662 20.5781 19.1013L19.1009 20.5997C18.9677 20.7348 18.9677 20.9535 19.1009 21.0886L21.9712 24L19.1009 26.9114C18.9677 27.0465 18.9677 27.2652 19.1009 27.4003L20.5781 28.8987C20.7113 29.0338 20.927 29.0338 21.0602 28.8987L24.0009 25.9157L26.9418 28.8987C27.075 29.0338 27.2906 29.0338 27.4238 28.8987L28.9011 27.4001C29.0343 27.265 29.0343 27.0462 28.9011 26.9111L26.031 24L28.9011 21.0889C29.0343 20.9538 29.0343 20.735 28.9011 20.5999L27.4238 19.1013Z" fill="white"/>
</svg>
