<svg width="18" height="18" viewBox="0 0 18 18" fill="none" xmlns="http://www.w3.org/2000/svg">
<g clip-path="url(#clip0_2428_1098)">
<path d="M0.00195312 5.39856V9.59744C0.00195312 12.5741 2.42381 14.996 5.40051 14.996H5.93467C8.02451 14.996 9.98929 15.81 11.467 17.2877L12.0296 17.8503C12.1259 17.9466 12.2534 18 12.3881 18C12.6697 18 12.8988 17.7712 12.8988 17.4904V14.9879C15.7367 14.8316 17.9975 12.4737 17.9975 9.59744V5.39856C17.9975 2.42185 15.5756 0 12.5989 0H5.40081C2.42381 0 0.00195312 2.42185 0.00195312 5.39856ZM11.6988 7.498C11.6988 6.83638 12.2369 6.29832 12.8985 6.29832C13.5601 6.29832 14.0982 6.83638 14.0982 7.498C14.0982 8.15962 13.5601 8.69768 12.8985 8.69768C12.2369 8.69768 11.6988 8.15962 11.6988 7.498ZM7.79987 7.498C7.79987 6.83638 8.33793 6.29832 8.99955 6.29832C9.66118 6.29832 10.1992 6.83638 10.1992 7.498C10.1992 8.15962 9.66118 8.69768 8.99955 8.69768C8.33793 8.69768 7.79987 8.15962 7.79987 7.498ZM3.90091 7.498C3.90091 6.83638 4.43897 6.29832 5.10059 6.29832C5.76222 6.29832 6.30027 6.83638 6.30027 7.498C6.30027 8.15962 5.76222 8.69768 5.10059 8.69768C4.43897 8.69768 3.90091 8.15962 3.90091 7.498Z" fill="#D7D7D7"/>
</g>
<defs>
<clipPath id="clip0_2428_1098">
<rect width="18" height="18" fill="white"/>
</clipPath>
</defs>
</svg>
