<svg width="26" height="26" viewBox="0 0 26 26" fill="none" xmlns="http://www.w3.org/2000/svg">
<rect width="26" height="26" rx="6" fill="white"/>
<g clip-path="url(#clip0_2428_1180)">
<path d="M10.8806 19.4428C10.8806 19.576 10.774 19.684 10.6425 19.684C10.511 19.684 10.4044 19.576 10.4044 19.4428V15.1007C10.4044 14.9675 10.511 14.8595 10.6425 14.8595C10.774 14.8595 10.8806 14.9675 10.8806 15.1007V19.4428Z" fill="#888888"/>
<path d="M8.97587 19.4428C8.97587 19.576 8.86926 19.684 8.73777 19.684C8.60628 19.684 8.49967 19.576 8.49967 19.4428V15.1007C8.49967 14.9675 8.60628 14.8595 8.73777 14.8595C8.86926 14.8595 8.97587 14.9675 8.97587 15.1007V19.4428Z" fill="#888888"/>
<path fill-rule="evenodd" clip-rule="evenodd" d="M19.7711 14.377L14.0061 9.88416C14.3282 9.6798 14.4993 9.30076 14.4409 8.92019C14.3825 8.53973 14.106 8.23101 13.7378 8.13549V7.38142H14.4521V6.4165H12.5473V7.38142H13.2616V8.34633C13.2616 8.47955 13.3682 8.58756 13.4997 8.58756C13.7626 8.58756 13.9759 8.80358 13.9759 9.07001C13.9759 9.33645 13.7626 9.55247 13.4997 9.55247C13.2367 9.55247 13.0235 9.33645 13.0235 9.07001C13.0235 8.9368 12.9169 8.82878 12.7854 8.82878C12.6539 8.82878 12.5473 8.9368 12.5473 9.07001C12.5481 9.40099 12.7164 9.70842 12.9933 9.88416L7.22828 14.377H6.83301V20.1665H20.1663V14.377H19.7711ZM18.9902 14.377L13.4997 10.0982L8.00918 14.377H18.9902ZM8.73777 19.684C8.86926 19.684 8.97587 19.576 8.97587 19.4428V15.1007C8.97587 14.9675 8.86926 14.8595 8.73777 14.8595C8.60628 14.8595 8.49967 14.9675 8.49967 15.1007V19.4428C8.49967 19.576 8.60628 19.684 8.73777 19.684ZM10.6425 19.684C10.774 19.684 10.8806 19.576 10.8806 19.4428V15.1007C10.8806 14.9675 10.774 14.8595 10.6425 14.8595C10.511 14.8595 10.4044 14.9675 10.4044 15.1007V19.4428C10.4044 19.576 10.511 19.684 10.6425 19.684ZM12.5473 19.684C12.6788 19.684 12.7854 19.576 12.7854 19.4428V15.1007C12.7854 14.9675 12.6788 14.8595 12.5473 14.8595C12.4158 14.8595 12.3092 14.9675 12.3092 15.1007V19.4428C12.3092 19.576 12.4158 19.684 12.5473 19.684ZM14.4521 19.684C14.5835 19.684 14.6902 19.576 14.6902 19.4428V15.1007C14.6902 14.9675 14.5835 14.8595 14.4521 14.8595C14.3206 14.8595 14.214 14.9675 14.214 15.1007V19.4428C14.214 19.576 14.3206 19.684 14.4521 19.684ZM16.3568 19.684C16.4883 19.684 16.5949 19.576 16.5949 19.4428V15.1007C16.5949 14.9675 16.4883 14.8595 16.3568 14.8595C16.2253 14.8595 16.1187 14.9675 16.1187 15.1007V19.4428C16.1187 19.576 16.2253 19.684 16.3568 19.684ZM18.2616 19.684C18.3931 19.684 18.4997 19.576 18.4997 19.4428V15.1007C18.4997 14.9675 18.3931 14.8595 18.2616 14.8595C18.1301 14.8595 18.0235 14.9675 18.0235 15.1007V19.4428C18.0235 19.576 18.1301 19.684 18.2616 19.684Z" fill="#323232"/>
<path d="M12.7854 19.4428C12.7854 19.576 12.6788 19.684 12.5473 19.684C12.4158 19.684 12.3092 19.576 12.3092 19.4428V15.1007C12.3092 14.9675 12.4158 14.8595 12.5473 14.8595C12.6788 14.8595 12.7854 14.9675 12.7854 15.1007V19.4428Z" fill="#888888"/>
<path d="M14.6902 19.4428C14.6902 19.576 14.5835 19.684 14.4521 19.684C14.3206 19.684 14.214 19.576 14.214 19.4428V15.1007C14.214 14.9675 14.3206 14.8595 14.4521 14.8595C14.5835 14.8595 14.6902 14.9675 14.6902 15.1007V19.4428Z" fill="#888888"/>
<path d="M16.5949 19.4428C16.5949 19.576 16.4883 19.684 16.3568 19.684C16.2253 19.684 16.1187 19.576 16.1187 19.4428V15.1007C16.1187 14.9675 16.2253 14.8595 16.3568 14.8595C16.4883 14.8595 16.5949 14.9675 16.5949 15.1007V19.4428Z" fill="#888888"/>
<path d="M18.4997 19.4428C18.4997 19.576 18.3931 19.684 18.2616 19.684C18.1301 19.684 18.0235 19.576 18.0235 19.4428V15.1007C18.0235 14.9675 18.1301 14.8595 18.2616 14.8595C18.3931 14.8595 18.4997 14.9675 18.4997 15.1007V19.4428Z" fill="#888888"/>
</g>
<defs>
<clipPath id="clip0_2428_1180">
<rect width="15" height="15" fill="white" transform="translate(6 6)"/>
</clipPath>
</defs>
</svg>
