<svg width="226" height="210" viewBox="0 0 226 210" fill="none" xmlns="http://www.w3.org/2000/svg">
<g clip-path="url(#clip0_2270_711)">
<path d="M33.0969 194.219C77.2286 215.26 148.777 215.26 192.902 194.219C237.034 173.177 237.034 139.058 192.902 118.016C148.771 96.9748 77.2222 96.9748 33.0969 118.016C-11.0349 139.058 -11.0349 173.177 33.0969 194.219Z" fill="#EFEFEF"/>
<path d="M152.308 187.982C158.053 190.724 167.371 190.724 173.122 187.982C178.867 185.239 178.867 180.799 173.122 178.057C167.378 175.314 158.059 175.314 152.308 178.057C146.564 180.799 146.564 185.239 152.308 187.982Z" fill="#EBEBEB"/>
<path d="M59.4573 185.229L121.049 149.646C121.678 149.286 121.678 148.696 121.049 148.336L115.35 145.039C114.721 144.678 113.706 144.678 113.083 145.039L51.4717 180.621C50.8428 180.982 50.8428 181.571 51.4717 181.932L57.1841 185.235C57.813 185.596 58.8284 185.596 59.4507 185.235L59.4573 185.229Z" fill="#E0E0E0"/>
<path d="M119.352 12.2925L63.82 44.3682C62.2543 45.2727 60.9834 47.4749 60.9834 49.2838V181.067C60.9834 182.876 62.2543 183.61 63.82 182.705L119.352 150.63C120.918 149.725 122.189 147.523 122.189 145.714V13.931C122.189 12.1221 120.918 11.388 119.352 12.2925Z" fill="#4D4D4D"/>
<path d="M63.8203 44.3682L119.353 12.2924C120.755 11.4863 121.914 11.9844 122.144 13.3935C121.927 11.7026 120.768 9.82809 119.353 9.01538L117.04 7.67835C115.475 6.77388 112.933 6.77388 111.367 7.67835L55.8347 39.7541C55.0486 40.2063 54.3411 40.9863 53.8301 41.8711L61.8157 46.4851C62.3267 45.5938 63.0407 44.8204 63.8203 44.3682Z" fill="#414141"/>
<path d="M53.0046 176.453C53.0046 178.262 54.2755 180.464 55.8412 181.368L58.1537 182.705C59.5687 183.525 61.7763 183.597 63.342 182.935C62.0056 183.44 60.9837 182.686 60.9837 181.067V49.2838C60.9837 48.3793 61.2981 47.3765 61.8156 46.4852L53.83 41.8711C53.319 42.7625 52.998 43.7652 52.998 44.6697V176.453H53.0046Z" fill="#272727"/>
<path d="M65.3468 61.9332L117.827 31.6205C118.77 31.0765 119.53 31.5156 119.53 32.6036V130.115C119.53 131.203 118.77 132.521 117.827 133.065L65.3468 163.377C64.41 163.921 63.6436 163.482 63.6436 162.394V64.8825C63.6436 63.7945 64.4035 62.4771 65.3468 61.9332Z" fill="white"/>
<path opacity="0.3" d="M91.5895 33.3311C91.0392 33.6522 90.5938 34.4256 90.5938 35.0614C90.5938 35.6971 91.0392 35.9593 91.5895 35.6381C92.1398 35.317 92.5852 34.5436 92.5852 33.9078C92.5852 33.2721 92.1398 33.0099 91.5895 33.3311Z" fill="white"/>
<path d="M91.5895 152.904C89.4145 154.162 87.6523 157.217 87.6523 159.733C87.6523 162.25 89.4145 163.266 91.5895 162.008C93.7644 160.749 95.5266 157.695 95.5266 155.178C95.5266 152.662 93.7644 151.646 91.5895 152.904Z" fill="#37474F"/>
<path opacity="0.3" d="M82.1631 43.4767C81.0625 44.1125 80.165 45.6592 80.165 46.9373C80.165 48.2153 81.056 48.7266 82.1631 48.0908C83.2636 47.4551 84.1611 45.9083 84.1611 44.6303C84.1611 43.3522 83.2702 42.841 82.1631 43.4767Z" fill="white"/>
<path opacity="0.3" d="M87.0439 43.0441C87.0439 43.8896 87.6794 44.2173 88.4655 43.7651L101.594 36.182C102.38 35.7298 103.015 34.6746 103.015 33.8225C103.015 32.9705 102.38 32.6493 101.594 33.1016L88.4655 40.6847C87.6794 41.1369 87.0439 42.1921 87.0439 43.0441Z" fill="white"/>
<path d="M57.4197 66.1541C58.3041 66.6653 59.0182 67.904 59.0182 68.9199C59.0182 69.9358 58.3041 70.3487 57.4197 69.844C56.5353 69.3328 55.8213 68.0941 55.8213 67.0782C55.8213 66.0623 56.5353 65.6494 57.4197 66.1541Z" fill="#37474F"/>
<path d="M57.4197 78.4561C58.3041 78.9673 59.0182 80.206 59.0182 81.2219C59.0182 82.2378 58.3041 82.6507 57.4197 82.146C56.5353 81.6348 55.8213 80.3961 55.8213 79.3802C55.8213 78.3643 56.5353 77.9514 57.4197 78.4561Z" fill="#37474F"/>
<path d="M56.9295 66.3965C57.8139 66.9077 58.5279 68.1464 58.5279 69.1623C58.5279 70.1782 57.8139 70.5911 56.9295 70.0865C56.0451 69.5752 55.3311 68.3365 55.3311 67.3206C55.3311 66.3047 56.0451 65.8918 56.9295 66.3965Z" fill="#455A64"/>
<path d="M56.9295 78.7051C57.8139 79.2163 58.5279 80.455 58.5279 81.4709C58.5279 82.4868 57.8139 82.8997 56.9295 82.3951C56.0451 81.8838 55.3311 80.6451 55.3311 79.6292C55.3311 78.6133 56.0451 78.2004 56.9295 78.7051Z" fill="#455A64"/>
<path d="M130.176 35.6842C130.176 34.5962 129.416 34.157 128.473 34.701L122.191 38.332L75.9933 65.0137C75.0499 65.5577 74.29 66.8751 74.29 67.9631V165.475C74.29 166.563 75.0499 167.002 75.9933 166.458L122.204 139.763L128.466 136.145C129.403 135.601 130.17 134.284 130.17 133.196V35.6842H130.176Z" fill="white" stroke="#F23F34" stroke-miterlimit="10"/>
<path d="M75.2328 167.021C75.0166 167.021 74.807 166.969 74.6236 166.864C74.1977 166.615 73.9619 166.123 73.9619 165.475V67.9628C73.9619 66.7569 74.7808 65.3346 75.8289 64.7316L122.026 38.0499L122.354 38.6201L76.1565 65.3018C75.3245 65.7803 74.617 67.0059 74.617 67.9694V165.481C74.617 165.881 74.7415 166.176 74.9511 166.3C75.1673 166.425 75.4817 166.379 75.8289 166.182L122.039 139.488L122.367 140.058L76.1565 166.753C75.8355 166.936 75.521 167.028 75.2328 167.028V167.021Z" fill="#F23F34" stroke="#F23F34" stroke-miterlimit="10"/>
<path d="M122.374 140.051L122.046 139.481L128.309 135.863C129.141 135.378 129.848 134.159 129.848 133.196V35.6841C129.848 35.2843 129.724 34.9894 129.514 34.8648C129.304 34.7403 128.983 34.7862 128.636 34.9828L122.354 38.6138L122.026 38.0436L128.309 34.4126C128.866 34.0914 129.409 34.0456 129.842 34.2946C130.267 34.5437 130.503 35.0352 130.503 35.6775V133.196C130.503 134.402 129.684 135.824 128.636 136.427L122.374 140.045V140.051Z" fill="#F23F34" stroke="#F23F34" stroke-miterlimit="10"/>
<path d="M102.235 58.348C108.111 54.953 112.88 57.7057 112.88 64.4957C112.88 71.2858 108.118 79.5439 102.235 82.939C96.3589 86.334 91.5898 83.5813 91.5898 76.7912C91.5898 70.0012 96.3524 61.743 102.235 58.348Z" fill="#F23F34"/>
<path d="M102.236 63.6895C104.142 62.5884 105.688 63.4798 105.688 65.682C105.688 67.8842 104.142 70.5648 102.236 71.6659C100.329 72.767 98.7832 71.8756 98.7832 69.6734C98.7832 67.4712 100.329 64.7906 102.236 63.6895Z" fill="white"/>
<path d="M108.963 75.4412C108.963 71.8233 106.421 70.3552 103.29 72.1641L101.331 73.298C98.2 75.1069 95.6582 79.5113 95.6582 83.1291V84.1057C97.4663 84.7087 99.7526 84.3809 102.235 82.9456C104.79 81.4709 107.129 79.0787 108.963 76.2866V75.4477V75.4412Z" fill="white"/>
<path opacity="0.7" d="M102.235 63.6898C104.141 62.5887 105.687 63.48 105.687 65.6822C105.687 67.8844 104.141 70.565 102.235 71.6661C100.328 72.7672 98.7822 71.8758 98.7822 69.6737C98.7822 67.4715 100.328 64.7909 102.235 63.6898Z" fill="white"/>
<path opacity="0.7" d="M108.963 75.4413C108.963 71.8234 106.421 70.3553 103.29 72.1642L101.331 73.2981C98.2 75.107 95.6582 79.5114 95.6582 83.1292V84.1058C97.4663 84.7088 99.7526 84.3811 102.235 82.9457C104.79 81.4711 107.129 79.0788 108.963 76.2868V75.4478V75.4413Z" fill="white"/>
<path d="M81.6392 97.9151L95.3372 90.0043C95.9661 89.6438 96.4706 89.9388 96.4706 90.6597V91.112C96.4706 91.8395 95.9596 92.7177 95.3372 93.0782L81.6392 100.989C81.0103 101.349 80.5059 101.055 80.5059 100.334V99.8813C80.5059 99.1604 81.0168 98.2756 81.6392 97.9151Z" fill="#F23F34"/>
<path d="M81.069 107.471L122.51 83.5354C122.825 83.3519 123.08 83.5026 123.08 83.8631V88.7C123.08 89.0605 122.825 89.4996 122.51 89.6831L81.069 113.619C80.7545 113.802 80.499 113.651 80.499 113.291V108.454C80.499 108.094 80.7545 107.654 81.069 107.471Z" fill="#E3E3E3"/>
<path opacity="0.2" d="M81.069 107.471L122.51 83.5354C122.825 83.3519 123.08 83.5026 123.08 83.8631V88.7C123.08 89.0605 122.825 89.4996 122.51 89.6831L81.069 113.619C80.7545 113.802 80.499 113.651 80.499 113.291V108.454C80.499 108.094 80.7545 107.654 81.069 107.471Z" fill="white"/>
<path d="M81.6392 119.439L95.3372 111.528C95.9661 111.167 96.4706 111.462 96.4706 112.183V112.636C96.4706 113.356 95.9596 114.241 95.3372 114.602L81.6392 122.513C81.0103 122.873 80.5059 122.578 80.5059 121.857V121.405C80.5059 120.684 81.0168 119.799 81.6392 119.439Z" fill="#F23F34"/>
<path d="M81.069 128.988L122.51 105.053C122.825 104.869 123.08 105.02 123.08 105.38V110.217C123.08 110.578 122.825 111.017 122.51 111.2L81.069 135.136C80.7545 135.319 80.499 135.169 80.499 134.808V129.971C80.499 129.611 80.7545 129.172 81.069 128.988Z" fill="#E3E3E3"/>
<path opacity="0.2" d="M81.069 128.988L122.51 105.053C122.825 104.869 123.08 105.02 123.08 105.38V110.217C123.08 110.578 122.825 111.017 122.51 111.2L81.069 135.136C80.7545 135.319 80.499 135.169 80.499 134.808V129.971C80.499 129.611 80.7545 129.172 81.069 128.988Z" fill="white"/>
<path d="M97.603 131.734L113.961 122.283C114.59 121.923 115.094 122.218 115.094 122.939V128.005C115.094 128.726 114.583 129.611 113.961 129.971L97.603 139.422C96.9741 139.783 96.4697 139.488 96.4697 138.767V133.7C96.4697 132.98 96.9807 132.095 97.603 131.734Z" fill="#F23F34"/>
<path opacity="0.1" d="M97.603 131.734L113.961 122.283C114.59 121.923 115.094 122.218 115.094 122.939V128.005C115.094 128.726 114.583 129.611 113.961 129.971L97.603 139.422C96.9741 139.783 96.4697 139.488 96.4697 138.767V133.7C96.4697 132.98 96.9807 132.095 97.603 131.734Z" fill="#F23F34"/>
<path d="M136.385 110.381C136.385 110.381 128.334 99.2718 127.85 97.9545C127.476 96.9583 127.876 95.477 127.967 94.7888C128.059 94.1007 128.19 92.567 128.308 92.141C128.511 91.3938 127.542 91.5511 127.004 92.2262C126.448 92.9209 126.271 94.2711 125.996 94.4939C125.72 94.7168 123.572 91.5904 122.445 90.142C121.325 88.6935 120.624 87.8218 119.943 88.3593C119.451 88.746 119.818 89.5914 120.63 90.8171C121.443 92.0492 121.803 92.6194 121.927 92.8816C122.052 93.1438 121.384 93.17 121.023 93.7205C120.742 94.1531 121.004 94.8544 120.63 95.1886C120.257 95.5229 119.91 96.1259 120.316 96.8075C120.84 97.6726 121.882 98.9048 123.087 99.7437C124.292 100.576 124.777 100.871 125.485 102.005C126.192 103.139 132.606 114.72 133.038 115.415C133.47 116.109 134.302 117.525 135.567 117.564C136.831 117.604 147.181 108.69 147.712 108.244C149.415 106.822 149.952 106.612 150.247 107.897C150.339 108.297 150.398 108.756 150.463 109.273C150.667 110.899 151.774 116.706 151.774 116.706C151.774 116.706 157.008 119.242 161.318 117.99C165.629 116.738 167.077 114.936 167.077 114.936L164.921 111.423C165.511 109.975 168.217 104.102 169.068 99.9928L155.573 97.8103C155.298 97.7513 154.853 97.6399 154.289 97.4891C153.549 97.2925 151.688 96.6371 150.247 97.8889C145.603 101.933 136.385 110.368 136.385 110.368" fill="#E0E0E0"/>
<path d="M163.139 178.504L160.722 181.866C160.722 181.866 161.842 182.522 164.233 182.614C166.395 182.699 166.991 181.984 167.07 181.814C167.436 181.027 166.866 179.612 166.709 178.399L163.139 178.504Z" fill="#272727"/>
<path d="M160.854 180.247C160.854 180.247 157.926 180.057 155.895 179.808C153.871 179.553 152.266 180.542 152.744 181.375C153.222 182.207 154.336 182.902 156.072 183.485C157.559 183.983 159.348 184.35 160.9 184.816C162.492 185.294 163.514 185.838 164.411 185.53C165.42 185.183 165.846 184.783 165.761 184.049C165.676 183.315 164.949 180.955 164.949 180.955L160.854 180.247Z" fill="#272727"/>
<path d="M167.069 175.122C167.069 175.122 166.702 178.177 166.676 178.832C166.65 179.487 163.695 179.697 163.139 178.498L163.047 174.762L167.076 175.116L167.069 175.122Z" fill="#F28F8F"/>
<path d="M164.096 177.003L165.15 181.637C165.15 181.637 165.249 182.201 162.838 182.561C160.427 182.922 156.641 181.296 155.999 180.969C155.357 180.641 155.278 179.985 157.649 180.116C160.021 180.248 160.859 180.254 160.859 180.254L160.093 178.203L164.102 177.01L164.096 177.003Z" fill="#FFA8A7"/>
<path d="M169.068 99.9992L170.738 99.5404C170.738 99.5404 174.23 110.597 174.616 111.659C175.003 112.721 175.435 113.861 174.688 115.178C173.791 116.745 169.068 123.056 169.068 123.056L166.067 120.12L169.467 113.887L166.46 107.785L169.068 99.9992Z" fill="#E0E0E0"/>
<path d="M151.892 85.6327C151.892 85.6327 150.555 83.4895 151.964 80.8678C153.621 77.7809 157.335 76.2669 161.751 76.8502C163.795 77.1189 166.199 78.7967 167.522 81.3528C168.976 84.1645 169.107 89.8273 169.468 91.9705L151.892 85.6327Z" fill="#272727"/>
<path d="M151.787 86.8386C151.787 86.8386 150.739 88.8376 150.922 89.0211C151.105 89.2047 151.806 89.3488 151.806 89.3488L151.793 86.8386H151.787Z" fill="#E0E0E0"/>
<path d="M154.977 80.5205C153.837 81.2677 151.872 82.6244 151.787 87.1205C151.702 91.7345 152.35 93.2158 153.032 93.7532C153.49 94.1137 156.183 93.9302 157.336 93.6615C158.488 93.3927 161.81 91.7477 163.009 89.2505C164.417 86.3143 164.129 82.0148 162.039 80.763C159.091 79.0065 155.947 79.8913 154.977 80.5205Z" fill="#E0E0E0"/>
<path d="M167.07 114.949C169.088 118.095 171.014 120.867 171.42 124.4C172.285 131.865 169.448 140.399 168.846 145.917C168.846 145.917 170.752 148.395 170.752 151.311C170.752 153.592 167.07 175.122 167.07 175.122C167.07 175.122 164.397 175.935 163.041 174.768L160.513 135.162L161.843 130.338L167.064 114.949H167.07Z" fill="#272727"/>
<path d="M167.069 114.949C168.15 116.712 170.731 119.734 170.188 122.63C169.52 126.143 167.633 128.614 161.848 130.332L156.424 149.981C156.424 149.981 159.248 152.622 160.112 155.139C160.977 157.656 164.095 177.003 164.095 177.003C164.095 177.003 163.132 178.576 160.086 178.196C160.086 178.196 149.467 153.933 148.714 152.366C147.967 150.807 147.476 149.633 147.816 147.09C148.157 144.547 151.773 116.712 151.773 116.712L167.069 114.949Z" fill="#272727"/>
<path d="M169.067 99.9994L155.572 97.8169C155.297 97.7579 154.852 97.6465 154.288 97.4957C154.288 97.4957 153.712 105.964 150.253 107.904C150.332 108.31 150.404 108.762 150.469 109.28C150.672 110.905 151.779 116.712 151.779 116.712C151.779 116.712 157.014 119.249 161.324 117.997C165.635 116.745 167.082 114.943 167.082 114.943L164.927 111.43C165.517 109.981 168.222 104.109 169.074 99.9994H169.067Z" fill="#F23F34"/>
<path opacity="0.2" d="M165.504 110.053C165.452 110.178 161.167 112.478 159.896 112.826C161.901 112.727 163.572 112.255 164.921 111.436L165.511 110.053H165.504Z" fill="white"/>
<path d="M154.637 80.7498C154.637 80.7498 154.008 85.01 155.535 87.5136C155.535 87.5136 156.105 85.8161 157.546 86.1438C158.994 86.4715 159.059 88.3526 158.05 89.4209C157.041 90.4892 155.921 90.1025 155.921 90.1025C155.921 90.1025 155.692 93.1829 155.574 95.7652C155.456 98.2558 154.762 103.978 157.67 106.278C160.572 108.578 167.857 109.358 171.27 104.58C173.17 101.926 170.648 97.2333 169.475 91.9704C168.394 87.1335 167.791 79.9633 162.656 78.8098C157.526 77.6628 154.644 80.7498 154.644 80.7498H154.637Z" fill="#272727"/>
</g>
<defs>
<clipPath id="clip0_2270_711">
<rect width="226" height="210" fill="white"/>
</clipPath>
</defs>
</svg>
