<svg width="22" height="22" viewBox="0 0 22 22" fill="none" xmlns="http://www.w3.org/2000/svg">
<path d="M9.53317 1.46666C9.12837 1.46666 8.79984 1.79519 8.79984 2.19999C8.79984 5.90846 3.6665 8.79999 3.6665 13.9333C3.6665 17.1248 5.77264 20.5333 11.7332 20.5333C15.7914 20.5333 18.3332 17.6147 18.3332 13.9333C18.3332 12.1689 17.4493 7.66832 16.8149 6.33072H16.8121C16.7043 6.05939 16.4426 5.86666 16.1332 5.86666C15.5208 5.86666 15.4127 6.46679 15.4127 6.46679C15.4127 6.46679 15.0772 7.97133 13.9332 8.79999C13.9332 5.89453 11.7352 3.05556 10.0588 1.6901C10.0588 1.6901 9.89177 1.46666 9.53317 1.46666ZM8.92158 10.1607C9.88298 10.1607 10.5114 10.8208 10.5114 11.835C10.5114 12.8456 9.88298 13.5094 8.92158 13.5094C7.96531 13.5094 7.33317 12.8448 7.33317 11.835C7.33317 10.8252 7.96165 10.1607 8.92158 10.1607ZM12.3777 10.3225H13.873L11.3994 13.7385L9.66781 16.7979H8.1682L10.6002 13.4005L12.3777 10.3225ZM8.92158 11.126C8.64805 11.126 8.48187 11.3863 8.48187 11.8307C8.48187 12.2707 8.64805 12.5354 8.92158 12.5354C9.19071 12.5354 9.357 12.27 9.357 11.8307C9.357 11.3819 9.20025 11.126 8.92158 11.126ZM13.0824 13.6111C14.0379 13.6111 14.6665 14.2713 14.6665 15.2811C14.6665 16.296 14.0379 16.9598 13.0824 16.9598C12.1269 16.9598 11.4983 16.2953 11.4983 15.2811C11.4983 14.2713 12.1269 13.6111 13.0824 13.6111ZM13.0824 14.5779C12.8089 14.5779 12.6427 14.8381 12.6427 15.2825C12.6427 15.7225 12.8089 15.9872 13.0824 15.9872C13.3515 15.9872 13.5178 15.7225 13.5178 15.2825C13.5178 14.833 13.3552 14.5779 13.0824 14.5779Z" fill="#8840FF"/>
</svg>
