<svg width="30" height="30" viewBox="0 0 30 30" fill="none" xmlns="http://www.w3.org/2000/svg">
<path d="M27.7952 25.664L23.9936 21.8168C23.6228 22.0571 23.2234 22.2511 22.7954 22.3987C22.3675 22.5465 21.9145 22.6204 21.4366 22.6204C20.1614 22.6204 19.0804 22.169 18.1935 21.2663C17.3067 20.3636 16.8633 19.2633 16.8633 17.9653C16.8633 16.6673 17.3067 15.567 18.1935 14.6643C19.0804 13.7615 20.1614 13.3102 21.4366 13.3102C22.7118 13.3102 23.7928 13.7615 24.6796 14.6643C25.5665 15.567 26.0099 16.6673 26.0099 17.9653C26.0099 18.4591 25.9355 18.9258 25.7867 19.3653C25.6379 19.8046 25.4418 20.213 25.1984 20.5905L29 24.4376L27.7952 25.664ZM21.4366 20.8747C22.2369 20.8747 22.9134 20.5935 23.466 20.031C24.0186 19.4685 24.2949 18.7799 24.2949 17.9653C24.2949 17.1507 24.0186 16.4621 23.466 15.8996C22.9134 15.3371 22.2369 15.0559 21.4366 15.0559C20.6363 15.0559 19.9598 15.3371 19.4072 15.8996C18.8546 16.4621 18.5783 17.1507 18.5783 17.9653C18.5783 18.7799 18.8546 19.4685 19.4072 20.031C19.9598 20.5935 20.6363 20.8747 21.4366 20.8747Z" fill="#373737"/>
<path fill-rule="evenodd" clip-rule="evenodd" d="M10.8608 23.8089V15.5013L3.71499 11.2893V19.3956C3.71499 19.4551 3.72967 19.5111 3.75901 19.5635C3.78836 19.6156 3.83228 19.6603 3.89078 19.6976L10.8608 23.8089ZM12.5758 23.8089L15.7654 21.9275C16.0012 22.2731 16.2718 22.6019 16.5766 22.9122C16.6954 23.033 16.8169 23.1486 16.9411 23.2589L12.7516 25.7134C12.4263 25.9045 12.0819 26 11.7183 26C11.3547 26 11.0103 25.9045 10.685 25.7134L3.03357 21.2306C2.7081 21.0397 2.45447 20.7846 2.27268 20.4654C2.09089 20.1459 2 19.7952 2 19.4133V10.5867C2 10.2048 2.09089 9.85408 2.27268 9.53462C2.45447 9.21536 2.7081 8.9603 3.03357 8.76944L10.685 4.28658C11.0103 4.09553 11.3547 4 11.7183 4C12.0819 4 12.4263 4.09553 12.7516 4.28658L20.403 8.76944C20.7285 8.9603 20.9821 9.21536 21.1639 9.53462C21.3457 9.85408 21.4366 10.2048 21.4366 10.5867V10.9826C19.5663 10.9826 17.9003 11.6711 16.5766 13.0184C16.4874 13.1093 16.4011 13.2017 16.3177 13.2957L12.5758 15.5013V23.8089ZM16.1267 11.3923L18.7784 9.84361L11.8941 5.79047C11.8356 5.75323 11.777 5.73461 11.7183 5.73461C11.6596 5.73461 11.601 5.75323 11.5425 5.79047L9.06006 7.24519L16.1267 11.3923ZM11.7183 13.9974L14.3765 12.4307L7.31648 8.27687L4.65824 9.84361L11.7183 13.9974Z" fill="#373737"/>
</svg>
