<svg width="26" height="26" viewBox="0 0 26 26" fill="none" xmlns="http://www.w3.org/2000/svg">
<g opacity="0.4">
<path d="M12.9997 4.33337C4.33301 4.33337 1.08301 13 1.08301 13C1.08301 13 4.33301 21.6667 12.9997 21.6667C21.6663 21.6667 24.9163 13 24.9163 13C24.9163 13 21.6663 4.33337 12.9997 4.33337ZM12.9997 6.50004C18.7153 6.50004 21.6063 11.1227 22.5423 12.9958C21.6052 14.8559 18.6926 19.5 12.9997 19.5C7.28401 19.5 4.39303 14.8774 3.45703 13.0043C4.3952 11.1442 7.30676 6.50004 12.9997 6.50004ZM12.9997 8.66671C10.6066 8.66671 8.66634 10.607 8.66634 13C8.66634 15.3931 10.6066 17.3334 12.9997 17.3334C15.3928 17.3334 17.333 15.3931 17.333 13C17.333 10.607 15.3928 8.66671 12.9997 8.66671ZM12.9997 10.8334C14.1968 10.8334 15.1663 11.803 15.1663 13C15.1663 14.1971 14.1968 15.1667 12.9997 15.1667C11.8026 15.1667 10.833 14.1971 10.833 13C10.833 11.803 11.8026 10.8334 12.9997 10.8334Z" fill="#373737"/>
</g>
</svg>
