<svg width="15" height="12" viewBox="0 0 15 12" fill="none" xmlns="http://www.w3.org/2000/svg">
<path opacity="0.3" d="M5.51866 0.318501C5.80297 0.313987 6.08886 0.417667 6.30914 0.631001C6.74997 1.05767 6.7613 1.76135 6.33463 2.20218L3.7321 4.88936H13.3322C13.9459 4.88936 14.4434 5.38686 14.4434 6.00047C14.4434 6.61408 13.9459 7.11158 13.3322 7.11158H3.7321L6.33463 9.7993C6.7613 10.2401 6.74997 10.943 6.30914 11.3699C6.09358 11.5788 5.81518 11.683 5.53657 11.683C5.24629 11.683 4.95601 11.5694 4.73796 11.3444L0.311956 6.77358C-0.104988 6.34275 -0.104988 5.65873 0.311956 5.2279L4.73796 0.6565C4.95157 0.435944 5.23436 0.323014 5.51866 0.318501Z" fill="black"/>
</svg>
