<svg width="30" height="30" viewBox="0 0 30 30" fill="none" xmlns="http://www.w3.org/2000/svg">
<g clip-path="url(#clip0_2487_9436)">
<circle cx="15" cy="15" r="15" fill="#F2F2F2"/>
<path d="M8.58333 21.4167H9.88958L18.85 12.4563L17.5437 11.15L8.58333 20.1104V21.4167ZM6.75 23.25V19.3542L18.85 7.27708C19.0333 7.10903 19.2358 6.97917 19.4573 6.8875C19.6788 6.79583 19.9118 6.75 20.1562 6.75C20.4007 6.75 20.6375 6.79583 20.8667 6.8875C21.0958 6.97917 21.2944 7.11667 21.4625 7.3L22.7229 8.58333C22.9062 8.75139 23.0399 8.95 23.124 9.17917C23.208 9.40833 23.25 9.6375 23.25 9.86667C23.25 10.1111 23.208 10.3441 23.124 10.5656C23.0399 10.7872 22.9062 10.9896 22.7229 11.1729L10.6458 23.25H6.75ZM18.1854 11.8146L17.5437 11.15L18.85 12.4563L18.1854 11.8146Z" fill="#373737"/>
</g>
<defs>
<clipPath id="clip0_2487_9436">
<rect width="30" height="30" fill="white"/>
</clipPath>
</defs>
</svg>
