<svg width="30" height="30" viewBox="0 0 30 30" fill="none" xmlns="http://www.w3.org/2000/svg">
<g clip-path="url(#clip0_2487_9450)">
<circle opacity="0.2" cx="15" cy="15" r="15" fill="#2079FF"/>
<path d="M9.50133 8.63477L10.418 9.58953C10.5869 9.76553 10.5865 10.0505 10.418 10.226C10.2494 10.4016 9.97585 10.402 9.80687 10.226L8.89024 9.27127C8.72127 9.09527 8.7217 8.81032 8.89024 8.63477C9.05879 8.45921 9.33235 8.45876 9.50133 8.63477Z" fill="#2079FF"/>
<path d="M8.09966 10.3451L9.2233 11.0185C9.4303 11.1427 9.50118 11.4178 9.38233 11.6329C9.26349 11.8481 8.99943 11.9228 8.79243 11.7986L7.66879 11.1252C7.46178 11.0009 7.3909 10.7259 7.50975 10.5107C7.62817 10.2955 7.89222 10.2213 8.09966 10.3451Z" fill="#2079FF"/>
<path d="M11.7697 9.1472C11.5631 9.27099 11.2987 9.19717 11.1798 8.98155L10.5333 7.81117C10.414 7.59555 10.4857 7.32051 10.6923 7.19672C10.8989 7.07293 11.1634 7.14675 11.2822 7.36237L11.9288 8.53275C12.048 8.74837 11.9763 9.02341 11.7697 9.1472Z" fill="#2079FF"/>
<path d="M13.3249 8.4807C13.0946 8.54507 12.8573 8.40283 12.7955 8.16245L12.4601 6.85792C12.3983 6.61755 12.5353 6.37087 12.7657 6.30649C12.996 6.24212 13.2333 6.38437 13.2951 6.62475L13.6305 7.92927C13.6923 8.16965 13.5553 8.41633 13.3249 8.4807Z" fill="#2079FF"/>
<path d="M20.5032 21.3647L19.5865 20.4099C19.4176 20.2339 19.418 19.949 19.5865 19.7734C19.7551 19.5979 20.0286 19.5974 20.1976 19.7734L21.1142 20.7282C21.2832 20.9042 21.2828 21.1891 21.1142 21.3647C20.9457 21.5407 20.6721 21.5407 20.5032 21.3647Z" fill="#2079FF"/>
<path d="M21.9047 19.6543L20.7811 18.9808C20.5741 18.8566 20.5032 18.5816 20.6221 18.3664C20.7409 18.1512 21.005 18.0765 21.212 18.2007L22.3356 18.8741C22.5426 18.9984 22.6135 19.2734 22.4946 19.4886C22.3758 19.7038 22.1117 19.778 21.9047 19.6543Z" fill="#2079FF"/>
<path d="M18.2344 20.851C18.441 20.7272 18.7055 20.801 18.8243 21.0167L19.4708 22.187C19.5901 22.4027 19.5184 22.6777 19.3118 22.8015C19.1052 22.9253 18.8407 22.8515 18.7219 22.6358L18.0754 21.4655C17.9561 21.2498 18.0274 20.9753 18.2344 20.851Z" fill="#2079FF"/>
<path d="M16.6797 21.5213C16.9101 21.457 17.1474 21.5992 17.2092 21.8396L17.5445 23.1441C17.6063 23.3845 17.4693 23.6312 17.239 23.6955C17.0086 23.7599 16.7714 23.6177 16.7096 23.3773L16.3742 22.0728C16.3124 21.8324 16.4494 21.5857 16.6797 21.5213Z" fill="#2079FF"/>
<path d="M15.2189 8.19859C15.2297 8.20039 15.2409 8.20129 15.2522 8.20174C18.7104 8.33633 21.4776 11.2731 21.5307 14.895C21.5394 14.8909 21.5463 14.886 21.5549 14.8819C22.2066 14.5794 22.9188 14.5263 23.628 14.5965C23.4271 9.88934 19.7662 6.11891 15.225 6.00007C15.1031 5.99692 15.002 6.1018 15.002 6.22919C15.002 6.22919 15.002 7.95281 15.002 7.95506C15.002 8.09145 15.0988 8.18058 15.2189 8.19859Z" fill="#2079FF"/>
<path d="M22.3468 16.2826L20.3459 14.1993C20.2141 14.062 20.3074 13.8271 20.4941 13.8271L24.7912 13.8262C24.977 13.8262 25.0703 14.0607 24.9385 14.198L22.9384 16.2822C22.7751 16.4523 22.5102 16.4528 22.3468 16.2826Z" fill="#2079FF"/>
<path d="M14.7812 21.801C14.77 21.8001 14.7591 21.7991 14.7479 21.7987C11.2897 21.6641 8.52254 18.7273 8.46938 15.1055C8.46074 15.1095 8.45382 15.1145 8.44518 15.1185C7.79347 15.421 7.08126 15.4741 6.37207 15.4039C6.57303 20.1106 10.2339 23.8811 14.7751 23.9999C14.8974 24.0031 14.9981 23.8986 14.9981 23.7712V22.0454C14.9921 21.9752 14.9791 21.9108 14.9277 21.8599C14.8866 21.8203 14.8348 21.8064 14.7812 21.801Z" fill="#2079FF"/>
<path d="M7.65343 13.7184L9.65437 15.8017C9.78618 15.939 9.69283 16.1739 9.50614 16.1739L5.20909 16.1748C5.02326 16.1748 4.92991 15.9403 5.06172 15.803L7.0618 13.7188C7.22472 13.5482 7.48964 13.5482 7.65343 13.7184Z" fill="#2079FF"/>
</g>
<defs>
<clipPath id="clip0_2487_9450">
<rect width="30" height="30" fill="white"/>
</clipPath>
</defs>
</svg>
