<svg width="30" height="30" viewBox="0 0 30 30" fill="none" xmlns="http://www.w3.org/2000/svg">
<circle opacity="0.2" cx="15" cy="15" r="15" fill="#F5BE00"/>
<path d="M4.91699 21.2497L15.0003 3.83301L25.0837 21.2497H4.91699ZM8.07949 19.4163H21.9212L15.0003 7.49967L8.07949 19.4163ZM15.0003 18.4997C15.26 18.4997 15.4778 18.4118 15.6535 18.2361C15.8291 18.0604 15.917 17.8427 15.917 17.583C15.917 17.3233 15.8291 17.1056 15.6535 16.9299C15.4778 16.7542 15.26 16.6663 15.0003 16.6663C14.7406 16.6663 14.5229 16.7542 14.3472 16.9299C14.1715 17.1056 14.0837 17.3233 14.0837 17.583C14.0837 17.8427 14.1715 18.0604 14.3472 18.2361C14.5229 18.4118 14.7406 18.4997 15.0003 18.4997ZM14.0837 15.7497H15.917V11.1663H14.0837V15.7497Z" fill="#F0AD00"/>
</svg>
