<svg width="22" height="22" viewBox="0 0 22 22" fill="none" xmlns="http://www.w3.org/2000/svg">
<g opacity="0.2">
<path d="M17.1737 20.68C17.1668 20.68 17.1599 20.68 17.1531 20.68C13.8462 20.5717 9.97213 17.3663 7.30291 14.6953C4.63026 12.0244 1.42479 8.14859 1.32166 4.85719C1.28385 3.70219 4.11807 1.64828 4.14729 1.62766C4.88291 1.11547 5.69932 1.29766 6.03448 1.76172C6.26135 2.07625 8.40979 5.33156 8.64354 5.70109C8.88588 6.08438 8.84979 6.655 8.54729 7.22734C8.38057 7.54531 7.82713 8.51813 7.5676 8.97188C7.84776 9.37063 8.58854 10.3486 10.1182 11.8783C11.6496 13.408 12.6259 14.1505 13.0264 14.4306C13.4801 14.1711 14.4529 13.6177 14.7709 13.4509C15.3346 13.1519 15.9018 13.1141 16.2885 13.3513C16.6839 13.5936 19.9306 15.7523 20.2296 15.9603C20.4806 16.1373 20.6421 16.4398 20.6748 16.7922C20.7057 17.148 20.5957 17.5244 20.3671 17.8527C20.3482 17.8802 18.3184 20.68 17.1737 20.68Z" fill="#373737"/>
</g>
</svg>
