<svg width="30" height="30" viewBox="0 0 30 30" fill="none" xmlns="http://www.w3.org/2000/svg">
<g opacity="0.3">
<path d="M15 2.5C13.965 2.5 13.125 3.34 13.125 4.375V5.24414C9.89148 6.07762 7.5 9.006 7.5 12.5V20L5.58105 21.4453H5.57861C5.40124 21.5583 5.25523 21.7141 5.15409 21.8985C5.05295 22.0828 4.99995 22.2897 5 22.5C5 22.8315 5.1317 23.1495 5.36612 23.3839C5.60054 23.6183 5.91848 23.75 6.25 23.75H15H23.75C24.0815 23.75 24.3995 23.6183 24.6339 23.3839C24.8683 23.1495 25 22.8315 25 22.5C25 22.2897 24.9471 22.0828 24.8459 21.8985C24.7448 21.7141 24.5988 21.5583 24.4214 21.4453L22.5 20V12.5C22.5 9.006 20.1085 6.07762 16.875 5.24414V4.375C16.875 3.34 16.035 2.5 15 2.5ZM12.5 25C12.5 26.375 13.625 27.5 15 27.5C16.375 27.5 17.5 26.375 17.5 25H12.5Z" fill="#373737"/>
</g>
</svg>
