<svg width="26" height="26" viewBox="0 0 26 26" fill="none" xmlns="http://www.w3.org/2000/svg">
<path opacity="0.3" d="M13 2.16669C7.62827 2.16669 3.25 6.54496 3.25 11.9167C3.25 17.2884 7.62827 21.6667 13 21.6667V25.0161L14.6673 23.9476C17.0895 22.3941 21.5064 19.04 22.5321 13.9564C22.6725 13.3007 22.75 12.6184 22.75 11.9167C22.75 6.54496 18.3717 2.16669 13 2.16669ZM13 4.33335C17.2006 4.33335 20.5833 7.71608 20.5833 11.9167C20.5833 12.4629 20.5233 12.995 20.4119 13.5121L20.4098 13.5205L20.4077 13.5269C19.7641 16.7206 17.3026 19.0723 15.1667 20.7336V19.2821L13.9479 19.4344C13.6219 19.4752 13.3076 19.5 13 19.5C8.79939 19.5 5.41667 16.1173 5.41667 11.9167C5.41667 7.71608 8.79939 4.33335 13 4.33335Z" fill="#373737"/>
</svg>
