<svg width="48" height="56" viewBox="0 0 48 56" fill="none" xmlns="http://www.w3.org/2000/svg">
<path fill-rule="evenodd" clip-rule="evenodd" d="M20.1315 54.9305C22.469 56.3519 25.3477 56.3568 27.6894 54.9432L44.1895 44.983C46.5463 43.5604 48 40.918 48 38.0568L48 17.9652C48 15.1068 46.5491 12.4665 44.1959 11.0428L27.6965 1.06064C25.3512 -0.358309 22.4656 -0.353212 20.1248 1.07402L3.78208 11.0384C1.44131 12.4656 -6.59976e-07 15.0985 -7.84502e-07 17.9473L-1.6645e-06 38.0793C-1.78917e-06 40.9314 1.44457 43.5668 3.78955 44.9928L20.1315 54.9305Z" fill="#F23F34"/>
<path d="M15.3337 19.3334C14.6122 19.3334 13.976 19.6877 13.5838 20.2326C13.3195 20.5988 13.4363 21.1178 13.8187 21.3562L23.3317 27.2849C23.7412 27.5405 24.2594 27.5405 24.6689 27.2849L34.1418 21.3054C34.5393 21.054 34.6385 20.5078 34.3449 20.1416C33.9495 19.6498 33.3462 19.3334 32.667 19.3334H15.3337ZM34.3089 23.7598C34.2183 23.7608 34.1263 23.7858 34.0402 23.8402L24.6689 29.7499C24.2594 30.0045 23.7412 30.0034 23.3317 29.7478L13.9583 23.9079C13.6138 23.6934 13.167 23.9418 13.167 24.348V34.5C13.167 35.6971 14.1366 36.6667 15.3337 36.6667H32.667C33.8641 36.6667 34.8337 35.6971 34.8337 34.5V24.2782C34.8337 23.9727 34.5807 23.7568 34.3089 23.7598Z" fill="white"/>
</svg>
