<svg width="48" height="56" viewBox="0 0 48 56" fill="none" xmlns="http://www.w3.org/2000/svg">
<path fill-rule="evenodd" clip-rule="evenodd" d="M20.1315 54.9305C22.469 56.3519 25.3477 56.3568 27.6894 54.9432L44.1895 44.983C46.5463 43.5604 48 40.918 48 38.0568L48 17.9652C48 15.1068 46.5491 12.4665 44.1959 11.0428L27.6965 1.06064C25.3512 -0.358309 22.4656 -0.353212 20.1248 1.07402L3.78208 11.0384C1.44131 12.4656 -6.59976e-07 15.0985 -7.84502e-07 17.9473L-1.6645e-06 38.0793C-1.78917e-06 40.9314 1.44457 43.5668 3.78955 44.9928L20.1315 54.9305Z" fill="#F23F34"/>
<path d="M23.9997 14.0833C20.3989 14.0833 17.4997 16.9825 17.4997 20.5833V21.6666C16.308 21.6666 15.333 22.6416 15.333 23.8333V34.6666C15.333 35.8583 16.308 36.8333 17.4997 36.8333H30.4997C31.6913 36.8333 32.6663 35.8583 32.6663 34.6666V23.8333C32.6663 22.6416 31.6913 21.6666 30.4997 21.6666V20.5833C30.4997 16.9825 27.6005 14.0833 23.9997 14.0833ZM23.9997 16.2499C26.4655 16.2499 28.333 18.1174 28.333 20.5833V21.6666H19.6663V20.5833C19.6663 18.1174 21.5338 16.2499 23.9997 16.2499ZM23.9997 27.0833C25.1913 27.0833 26.1663 28.0583 26.1663 29.2499C26.1663 30.4416 25.1913 31.4166 23.9997 31.4166C22.808 31.4166 21.833 30.4416 21.833 29.2499C21.833 28.0583 22.808 27.0833 23.9997 27.0833Z" fill="white"/>
</svg>
