<svg width="48" height="56" viewBox="0 0 48 56" fill="none" xmlns="http://www.w3.org/2000/svg">
<path fill-rule="evenodd" clip-rule="evenodd" d="M20.1315 54.9305C22.469 56.3519 25.3477 56.3568 27.6894 54.9432L44.1895 44.983C46.5463 43.5604 48 40.918 48 38.0568L48 17.9652C48 15.1068 46.5491 12.4665 44.1959 11.0428L27.6965 1.06064C25.3512 -0.358309 22.4656 -0.353212 20.1248 1.07402L3.78208 11.0384C1.44131 12.4656 -6.59976e-07 15.0985 -7.84502e-07 17.9473L-1.6645e-06 38.0793C-1.78917e-06 40.9314 1.44457 43.5668 3.78955 44.9928L20.1315 54.9305Z" fill="#F23F34"/>
<path d="M23.9997 16.0833C22.2176 16.0833 20.7497 17.5512 20.7497 19.3333C20.7497 19.7144 20.8298 20.0754 20.9528 20.4166H14.2497C13.0548 20.4166 12.083 21.3883 12.083 22.5833V35.5833C12.083 36.7782 13.0548 37.7499 14.2497 37.7499H33.7497C34.9446 37.7499 35.9163 36.7782 35.9163 35.5833V22.5833C35.9163 21.3883 34.9446 20.4166 33.7497 20.4166H27.0465C27.1696 20.0754 27.2497 19.7144 27.2497 19.3333C27.2497 17.5512 25.7818 16.0833 23.9997 16.0833ZM23.9997 18.2499C24.6108 18.2499 25.083 18.7221 25.083 19.3333C25.083 19.9444 24.6108 20.4166 23.9997 20.4166C23.3885 20.4166 22.9163 19.9444 22.9163 19.3333C22.9163 18.7221 23.3885 18.2499 23.9997 18.2499ZM19.6663 24.7499C20.8938 24.7499 21.833 25.6892 21.833 26.9166C21.833 28.144 20.8938 29.0833 19.6663 29.0833C18.4389 29.0833 17.4997 28.144 17.4997 26.9166C17.4997 25.6892 18.4389 24.7499 19.6663 24.7499ZM27.2497 25.8333H31.583C32.181 25.8333 32.6663 26.3186 32.6663 26.9166C32.6663 27.5146 32.181 27.9999 31.583 27.9999H27.2497C26.6517 27.9999 26.1663 27.5146 26.1663 26.9166C26.1663 26.3186 26.6517 25.8333 27.2497 25.8333ZM19.6663 30.1666C22.0334 30.1666 23.9997 31.1511 23.9997 32.5681V32.8749C23.9997 33.1739 23.757 33.4166 23.458 33.4166H15.8747C15.5757 33.4166 15.333 33.1739 15.333 32.8749V32.5681C15.333 31.1511 17.2993 30.1666 19.6663 30.1666ZM27.2497 30.1666H31.583C32.181 30.1666 32.6663 30.6519 32.6663 31.2499C32.6663 31.8479 32.181 32.3333 31.583 32.3333H27.2497C26.6517 32.3333 26.1663 31.8479 26.1663 31.2499C26.1663 30.6519 26.6517 30.1666 27.2497 30.1666Z" fill="white"/>
</svg>
