<svg width="30" height="30" viewBox="0 0 30 30" fill="none" xmlns="http://www.w3.org/2000/svg">
<path d="M25.0001 25H5.0001C4.55198 25 4.13948 24.7606 3.91635 24.3725C3.69385 23.9844 3.6951 23.5069 3.92073 23.12L13.9207 5.62C14.1445 5.23625 14.5557 5 15.0001 5C15.4445 5 15.8557 5.23625 16.0801 5.62L26.0801 23.12C26.3057 23.5069 26.307 23.9844 26.0845 24.3725C25.862 24.7606 25.4476 25 25.0001 25Z" fill="#E9E9E9"/>
<path opacity="0.3" d="M13.75 21.3387C13.75 21.1706 13.7794 21.0169 13.8394 20.8725C13.8981 20.73 13.9825 20.6063 14.0912 20.5025C14.1981 20.3975 14.33 20.3156 14.4812 20.2569C14.6337 20.1994 14.805 20.1688 14.9962 20.1688C15.1875 20.1688 15.36 20.1994 15.5138 20.2569C15.67 20.3156 15.8019 20.3975 15.9088 20.5025C16.0181 20.6063 16.1025 20.73 16.1606 20.8725C16.2206 21.0169 16.25 21.1706 16.25 21.3387C16.25 21.5075 16.2206 21.6613 16.1606 21.8013C16.1019 21.9419 16.0175 22.0631 15.9088 22.1688C15.8019 22.2725 15.67 22.3537 15.5138 22.4137C15.36 22.4712 15.1875 22.5 14.9962 22.5C14.8044 22.5 14.6337 22.4712 14.4812 22.4131C14.33 22.3531 14.1981 22.2719 14.0912 22.1681C13.9819 22.0625 13.8975 21.9412 13.8394 21.8006C13.7794 21.6606 13.75 21.5069 13.75 21.3387ZM15.925 18.75H14.0669L13.8038 11.25H16.1875L15.925 18.75Z" fill="#373737"/>
</svg>
